<?xml version="1.0" encoding="UTF-8"?>
<svg width="768px" height="600px" viewBox="0 0 768 600" version="1.1" xmlns="http://www.w3.org/2000/svg" xmlns:xlink="http://www.w3.org/1999/xlink">
    <!-- Generator: Sketch 58 (84663) - https://sketch.com -->
    <title>Race Track 01 Melbourne</title>
    <desc>Created with Sketch.</desc>
    <defs>
        <circle id="path-1" cx="13" cy="13" r="13"></circle>
        <filter x="-215.4%" y="-153.8%" width="530.8%" height="530.8%" filterUnits="objectBoundingBox" id="filter-2">
            <feOffset dx="0" dy="16" in="SourceAlpha" result="shadowOffsetOuter1"></feOffset>
            <feGaussianBlur stdDeviation="16" in="shadowOffsetOuter1" result="shadowBlurOuter1"></feGaussianBlur>
            <feColorMatrix values="0 0 0 0 0.628825005   0 0 0 0 0.850290581   0 0 0 0 0.886973505  0 0 0 0.3 0" type="matrix" in="shadowBlurOuter1"></feColorMatrix>
        </filter>
        <circle id="path-3" cx="13" cy="13" r="13"></circle>
        <filter x="-215.4%" y="-153.8%" width="530.8%" height="530.8%" filterUnits="objectBoundingBox" id="filter-4">
            <feOffset dx="0" dy="16" in="SourceAlpha" result="shadowOffsetOuter1"></feOffset>
            <feGaussianBlur stdDeviation="16" in="shadowOffsetOuter1" result="shadowBlurOuter1"></feGaussianBlur>
            <feColorMatrix values="0 0 0 0 0.628825005   0 0 0 0 0.850290581   0 0 0 0 0.886973505  0 0 0 0.3 0" type="matrix" in="shadowBlurOuter1"></feColorMatrix>
        </filter>
        <circle id="path-5" cx="13" cy="13" r="13"></circle>
        <filter x="-215.4%" y="-153.8%" width="530.8%" height="530.8%" filterUnits="objectBoundingBox" id="filter-6">
            <feOffset dx="0" dy="16" in="SourceAlpha" result="shadowOffsetOuter1"></feOffset>
            <feGaussianBlur stdDeviation="16" in="shadowOffsetOuter1" result="shadowBlurOuter1"></feGaussianBlur>
            <feColorMatrix values="0 0 0 0 0.628825005   0 0 0 0 0.850290581   0 0 0 0 0.886973505  0 0 0 0.3 0" type="matrix" in="shadowBlurOuter1"></feColorMatrix>
        </filter>
        <circle id="path-7" cx="13" cy="13" r="13"></circle>
        <filter x="-215.4%" y="-153.8%" width="530.8%" height="530.8%" filterUnits="objectBoundingBox" id="filter-8">
            <feOffset dx="0" dy="16" in="SourceAlpha" result="shadowOffsetOuter1"></feOffset>
            <feGaussianBlur stdDeviation="16" in="shadowOffsetOuter1" result="shadowBlurOuter1"></feGaussianBlur>
            <feColorMatrix values="0 0 0 0 0.628825005   0 0 0 0 0.850290581   0 0 0 0 0.886973505  0 0 0 0.3 0" type="matrix" in="shadowBlurOuter1"></feColorMatrix>
        </filter>
        <circle id="path-9" cx="13" cy="13" r="13"></circle>
        <filter x="-215.4%" y="-153.8%" width="530.8%" height="530.8%" filterUnits="objectBoundingBox" id="filter-10">
            <feOffset dx="0" dy="16" in="SourceAlpha" result="shadowOffsetOuter1"></feOffset>
            <feGaussianBlur stdDeviation="16" in="shadowOffsetOuter1" result="shadowBlurOuter1"></feGaussianBlur>
            <feColorMatrix values="0 0 0 0 0.628825005   0 0 0 0 0.850290581   0 0 0 0 0.886973505  0 0 0 0.3 0" type="matrix" in="shadowBlurOuter1"></feColorMatrix>
        </filter>
        <circle id="path-11" cx="13" cy="13" r="13"></circle>
        <filter x="-215.4%" y="-153.8%" width="530.8%" height="530.8%" filterUnits="objectBoundingBox" id="filter-12">
            <feOffset dx="0" dy="16" in="SourceAlpha" result="shadowOffsetOuter1"></feOffset>
            <feGaussianBlur stdDeviation="16" in="shadowOffsetOuter1" result="shadowBlurOuter1"></feGaussianBlur>
            <feColorMatrix values="0 0 0 0 0.628825005   0 0 0 0 0.850290581   0 0 0 0 0.886973505  0 0 0 0.3 0" type="matrix" in="shadowBlurOuter1"></feColorMatrix>
        </filter>
        <circle id="path-13" cx="13" cy="13" r="13"></circle>
        <filter x="-215.4%" y="-153.8%" width="530.8%" height="530.8%" filterUnits="objectBoundingBox" id="filter-14">
            <feOffset dx="0" dy="16" in="SourceAlpha" result="shadowOffsetOuter1"></feOffset>
            <feGaussianBlur stdDeviation="16" in="shadowOffsetOuter1" result="shadowBlurOuter1"></feGaussianBlur>
            <feColorMatrix values="0 0 0 0 0.628825005   0 0 0 0 0.850290581   0 0 0 0 0.886973505  0 0 0 0.3 0" type="matrix" in="shadowBlurOuter1"></feColorMatrix>
        </filter>
        <circle id="path-15" cx="13" cy="13" r="13"></circle>
        <filter x="-215.4%" y="-153.8%" width="530.8%" height="530.8%" filterUnits="objectBoundingBox" id="filter-16">
            <feOffset dx="0" dy="16" in="SourceAlpha" result="shadowOffsetOuter1"></feOffset>
            <feGaussianBlur stdDeviation="16" in="shadowOffsetOuter1" result="shadowBlurOuter1"></feGaussianBlur>
            <feColorMatrix values="0 0 0 0 0.628825005   0 0 0 0 0.850290581   0 0 0 0 0.886973505  0 0 0 0.3 0" type="matrix" in="shadowBlurOuter1"></feColorMatrix>
        </filter>
        <circle id="path-17" cx="13" cy="13" r="13"></circle>
        <filter x="-215.4%" y="-153.8%" width="530.8%" height="530.8%" filterUnits="objectBoundingBox" id="filter-18">
            <feOffset dx="0" dy="16" in="SourceAlpha" result="shadowOffsetOuter1"></feOffset>
            <feGaussianBlur stdDeviation="16" in="shadowOffsetOuter1" result="shadowBlurOuter1"></feGaussianBlur>
            <feColorMatrix values="0 0 0 0 0.628825005   0 0 0 0 0.850290581   0 0 0 0 0.886973505  0 0 0 0.3 0" type="matrix" in="shadowBlurOuter1"></feColorMatrix>
        </filter>
        <circle id="path-19" cx="13" cy="13" r="13"></circle>
        <filter x="-215.4%" y="-153.8%" width="530.8%" height="530.8%" filterUnits="objectBoundingBox" id="filter-20">
            <feOffset dx="0" dy="16" in="SourceAlpha" result="shadowOffsetOuter1"></feOffset>
            <feGaussianBlur stdDeviation="16" in="shadowOffsetOuter1" result="shadowBlurOuter1"></feGaussianBlur>
            <feColorMatrix values="0 0 0 0 0.628825005   0 0 0 0 0.850290581   0 0 0 0 0.886973505  0 0 0 0.3 0" type="matrix" in="shadowBlurOuter1"></feColorMatrix>
        </filter>
        <circle id="path-21" cx="13" cy="13" r="13"></circle>
        <filter x="-215.4%" y="-153.8%" width="530.8%" height="530.8%" filterUnits="objectBoundingBox" id="filter-22">
            <feOffset dx="0" dy="16" in="SourceAlpha" result="shadowOffsetOuter1"></feOffset>
            <feGaussianBlur stdDeviation="16" in="shadowOffsetOuter1" result="shadowBlurOuter1"></feGaussianBlur>
            <feColorMatrix values="0 0 0 0 0.628825005   0 0 0 0 0.850290581   0 0 0 0 0.886973505  0 0 0 0.3 0" type="matrix" in="shadowBlurOuter1"></feColorMatrix>
        </filter>
        <circle id="path-23" cx="13" cy="13" r="13"></circle>
        <filter x="-215.4%" y="-153.8%" width="530.8%" height="530.8%" filterUnits="objectBoundingBox" id="filter-24">
            <feOffset dx="0" dy="16" in="SourceAlpha" result="shadowOffsetOuter1"></feOffset>
            <feGaussianBlur stdDeviation="16" in="shadowOffsetOuter1" result="shadowBlurOuter1"></feGaussianBlur>
            <feColorMatrix values="0 0 0 0 0.628825005   0 0 0 0 0.850290581   0 0 0 0 0.886973505  0 0 0 0.3 0" type="matrix" in="shadowBlurOuter1"></feColorMatrix>
        </filter>
        <circle id="path-25" cx="13" cy="13" r="13"></circle>
        <filter x="-215.4%" y="-153.8%" width="530.8%" height="530.8%" filterUnits="objectBoundingBox" id="filter-26">
            <feOffset dx="0" dy="16" in="SourceAlpha" result="shadowOffsetOuter1"></feOffset>
            <feGaussianBlur stdDeviation="16" in="shadowOffsetOuter1" result="shadowBlurOuter1"></feGaussianBlur>
            <feColorMatrix values="0 0 0 0 0.628825005   0 0 0 0 0.850290581   0 0 0 0 0.886973505  0 0 0 0.3 0" type="matrix" in="shadowBlurOuter1"></feColorMatrix>
        </filter>
        <circle id="path-27" cx="13" cy="13" r="13"></circle>
        <filter x="-215.4%" y="-153.8%" width="530.8%" height="530.8%" filterUnits="objectBoundingBox" id="filter-28">
            <feOffset dx="0" dy="16" in="SourceAlpha" result="shadowOffsetOuter1"></feOffset>
            <feGaussianBlur stdDeviation="16" in="shadowOffsetOuter1" result="shadowBlurOuter1"></feGaussianBlur>
            <feColorMatrix values="0 0 0 0 0.628825005   0 0 0 0 0.850290581   0 0 0 0 0.886973505  0 0 0 0.3 0" type="matrix" in="shadowBlurOuter1"></feColorMatrix>
        </filter>
        <circle id="path-29" cx="13" cy="13" r="13"></circle>
        <filter x="-215.4%" y="-153.8%" width="530.8%" height="530.8%" filterUnits="objectBoundingBox" id="filter-30">
            <feOffset dx="0" dy="16" in="SourceAlpha" result="shadowOffsetOuter1"></feOffset>
            <feGaussianBlur stdDeviation="16" in="shadowOffsetOuter1" result="shadowBlurOuter1"></feGaussianBlur>
            <feColorMatrix values="0 0 0 0 0.628825005   0 0 0 0 0.850290581   0 0 0 0 0.886973505  0 0 0 0.3 0" type="matrix" in="shadowBlurOuter1"></feColorMatrix>
        </filter>
        <circle id="path-31" cx="13" cy="13" r="13"></circle>
        <filter x="-215.4%" y="-153.8%" width="530.8%" height="530.8%" filterUnits="objectBoundingBox" id="filter-32">
            <feOffset dx="0" dy="16" in="SourceAlpha" result="shadowOffsetOuter1"></feOffset>
            <feGaussianBlur stdDeviation="16" in="shadowOffsetOuter1" result="shadowBlurOuter1"></feGaussianBlur>
            <feColorMatrix values="0 0 0 0 0.628825005   0 0 0 0 0.850290581   0 0 0 0 0.886973505  0 0 0 0.3 0" type="matrix" in="shadowBlurOuter1"></feColorMatrix>
        </filter>
    </defs>
    <g id="Race-Track-01-Melbourne" stroke="none" stroke-width="1" fill="none" fill-rule="evenodd">
        <g transform="translate(30.000000, 65.000000)">
            <path d="M247.56611,81.2905443 C255.742096,89.0114643 263.918082,96.7323842 272.094068,104.453304 C273.368401,105.656564 275.288621,107.281754 274.798017,108.96553 C274.37774,110.40933 274.43794,112.094232 273.536624,113.296929 C270.111397,117.869994 263.77799,121.322044 263.260942,127.014434 C263.020704,129.661494 262.438393,132.300104 262.540227,134.956177 C262.600427,136.520528 263.175424,141.146545 262.720265,139.64923 C262.702261,139.590081 262.656126,139.411507 262.666816,139.472346 C264.067176,147.298608 267.463147,154.955309 270.886124,162.247539 C278.932144,179.388928 287.487336,196.479054 297.073246,212.773767 C301.186557,219.764619 306.357592,226.289602 311.983224,232.10367 C318.208608,238.538521 325.515347,244.039381 332.626857,249.519961 C335.200278,251.503425 338.100019,253.098759 341.037455,254.496366 C349.632592,258.584972 358.224354,263.011009 367.22514,265.979164 C374.471116,268.369911 382.199819,269.43572 389.779991,270.573072 C400.492828,272.179109 411.28837,273.615585 422.105854,274.209329 C426.888682,274.471838 431.670947,274.725897 436.453213,274.995729 C440.959794,275.250352 445.466376,275.520747 449.972958,275.783256 C451.921309,275.896484 454.128465,274.976576 455.560894,273.797539 C456.944938,272.658498 459.336071,269.03745 460.674542,267.701809 C464.992647,263.390126 469.221294,259.982579 473.655861,255.726665 C475.957537,253.516745 479.634818,250.308614 482.01076,248.304871 C483.352607,247.173152 485.297583,246.416608 487.058019,246.319716 C490.66666,246.1203 494.422707,247.156253 498.117992,247.414818 C522.855807,249.145913 545.640769,250.896725 570.223863,254.304835 C578.772866,255.489506 587.406824,257.772659 595.264367,261.194289 C603.081402,264.59902 610.335817,269.653727 617.245909,274.782793 C641.620271,292.875636 665.367313,311.923877 689.11773,330.859453 C692.573339,333.614671 696.600006,337.627228 698.962446,340.907464 C699.598768,341.792447 698.842045,343.400174 698.210786,344.40796 C686.485797,363.131163 675.99857,379.416299 663.695208,397.844883 C659.941974,403.467421 656.683844,409.920862 651.843629,414.30465 C648.655265,417.193376 643.842055,418.879968 639.610595,419.663552 C636.259633,420.283772 632.338738,419.848886 629.097488,418.515498 C607.999258,409.832983 587.565482,398.717473 566.592155,389.615845 C565.073645,388.956756 563.017271,388.650871 561.621974,389.232785 C559.958309,389.927363 557.935129,391.637052 557.416957,393.443632 C556.215202,397.633637 556.908911,402.642151 556.461066,407.223666 C555.76173,414.380699 555.246371,421.638003 553.975976,428.658711 C553.653595,430.442195 552.852425,432.292715 551.682739,433.635116 C549.794026,435.801097 547.0822,437.319819 544.801341,439.184985 C543.259201,440.445141 541.997245,442.325517 540.213742,443.012772 C537.855804,443.920851 534.990945,444.112381 532.377015,443.969297 C524.478401,443.538354 516.529151,442.507471 508.674421,441.290127 C488.940544,438.232967 469.287684,434.588261 449.609506,431.146914 C404.360274,423.232774 359.129046,415.218362 313.894442,407.223666 C293.438162,403.607689 272.905365,400.251967 252.535728,396.314332 C250.795546,395.978027 247.918873,396.199414 245.463601,393.635163 C242.838982,390.894591 242.664007,385.583571 242.978511,381.386244 C243.347027,376.470114 242.082821,371.739319 239.155512,367.60621 C235.711718,362.743596 230.922139,358.317559 225.966587,354.974794 C221.938232,352.257318 216.908414,350.852951 212.20379,349.424361 C209.134701,348.492623 205.847878,348.287573 202.646573,347.893246 C194.442457,346.88377 186.121877,346.65168 177.988651,345.214077 C159.425022,341.931588 140.988545,337.74271 122.555444,333.730715 C119.007003,332.958398 115.464751,332.071163 112.042337,330.859453 C97.4333607,325.690954 82.920592,320.182208 68.4607095,314.59178 C63.6148682,312.718164 58.8044719,310.720053 54.1246033,308.46732 C45.5514082,304.340408 36.6001327,300.472061 28.7015183,295.453407 C26.6603349,294.156072 24.8644536,291.689275 24.3052099,289.520478 C23.8449872,287.734177 24.7654326,285.371596 25.643119,283.586985 C26.9315175,280.969781 29.0779107,278.733948 30.8045898,276.314471 C33.5377951,272.482177 37.0620433,269.031817 39.0233347,264.831109 C41.2029224,260.163969 42.5633363,254.842247 43.2289151,249.711491 C43.8376693,245.017874 43.9462549,239.895005 42.8463339,235.35743 C41.843746,231.218688 39.3040818,227.319922 36.9213884,223.682538 C32.7416886,217.304019 27.7748841,211.412213 23.1585915,205.309723 C19.6191525,200.630753 15.8811089,196.095431 12.4541938,191.338159 C11.3644,189.82507 9.94041014,188.221286 9.62478063,186.405693 C9.08354072,183.283751 8.99127113,179.755089 9.77781312,176.6016 C13.4747855,161.78843 17.7855757,146.804573 23.3498821,132.582329 C26.1967365,125.305309 30.72301,118.673858 35.0096075,112.103809 C41.045389,102.852337 48.9681961,94.7393436 54.3158939,85.1183315 C60.4197523,74.1352017 63.8967405,61.6181404 69.746295,50.813021 C71.0656376,48.3766443 73.9530006,46.0647623 76.505605,45.6946584 C80.0984928,45.1730202 84.3721501,46.7035718 88.3397425,46.8410229 C92.9099003,46.9987536 97.6325279,46.7970836 102.102539,45.8839353 C106.999017,44.8834717 111.887617,43.2103991 116.438646,41.0990604 C123.165324,37.9788083 129.102084,32.9342411 135.93566,30.1902894 C141.017239,28.1499296 146.710385,27.4300014 152.183547,26.7449993 C157.414783,26.0904167 162.799613,25.8098813 168.048853,26.170972 C172.994841,26.5112198 178.024096,27.4192982 182.766978,28.8507047 C187.326446,30.2263422 192.012503,31.9270176 195.956465,34.5921039 C204.755834,40.5391163 213.071912,47.5170118 220.996407,54.6875641 C230.275689,63.0833464 238.947905,72.2052534 247.56611,81.2905443" id="Stroke-1" stroke="#011321" stroke-width="2"></path>
            <polygon id="Triangle" fill="#0C111B" transform="translate(385.158510, 442.000000) rotate(-81.000000) translate(-385.158510, -442.000000) " points="385.15851 429 393.15851 455 377.15851 455"></polygon>
            <g id="Buttons/POI" transform="translate(259.000000, 355.000000)">
                <g id="POI-Copy-8" transform="translate(3.000000, 8.000000)">
                    <g id="Oval">
                        <use fill="black" fill-opacity="1" filter="url(#filter-2)" xlink:href="#path-1"></use>
                        <use fill="#A0D9E2" fill-rule="evenodd" xlink:href="#path-1"></use>
                    </g>
                    <text id="10" font-family="NeueHaasUnicaPro-Bold, Neue Haas Unica Pro" font-size="12" font-weight="bold" line-spacing="40" letter-spacing="-1.33333333" fill="#1D1D1B">
                        <tspan x="9.06666667" y="17">1</tspan>
                    </text>
                </g>
            </g>
            <g id="Buttons/POI" transform="translate(195.000000, 355.000000)">
                <g id="POI-Copy-8" transform="translate(3.000000, 8.000000)">
                    <g id="Oval">
                        <use fill="black" fill-opacity="1" filter="url(#filter-4)" xlink:href="#path-3"></use>
                        <use fill="#A0D9E2" fill-rule="evenodd" xlink:href="#path-3"></use>
                    </g>
                    <text id="10" font-family="NeueHaasUnicaPro-Bold, Neue Haas Unica Pro" font-size="12" font-weight="bold" line-spacing="40" letter-spacing="-1.33333333" fill="#1D1D1B">
                        <tspan x="9.06666667" y="17">2</tspan>
                    </text>
                </g>
            </g>
            <g id="Buttons/POI" transform="translate(42.000000, 262.000000)">
                <g id="POI-Copy-8" transform="translate(3.000000, 8.000000)">
                    <g id="Oval">
                        <use fill="black" fill-opacity="1" filter="url(#filter-6)" xlink:href="#path-5"></use>
                        <use fill="#A0D9E2" fill-rule="evenodd" xlink:href="#path-5"></use>
                    </g>
                    <text id="10" font-family="NeueHaasUnicaPro-Bold, Neue Haas Unica Pro" font-size="12" font-weight="bold" line-spacing="40" letter-spacing="-1.33333333" fill="#1D1D1B">
                        <tspan x="9.06666667" y="17">3</tspan>
                    </text>
                </g>
            </g>
            <g id="Buttons/POI" transform="translate(0.000000, 226.000000)">
                <g id="POI-Copy-8" transform="translate(3.000000, 8.000000)">
                    <g id="Oval">
                        <use fill="black" fill-opacity="1" filter="url(#filter-8)" xlink:href="#path-7"></use>
                        <use fill="#A0D9E2" fill-rule="evenodd" xlink:href="#path-7"></use>
                    </g>
                    <text id="10" font-family="NeueHaasUnicaPro-Bold, Neue Haas Unica Pro" font-size="12" font-weight="bold" line-spacing="40" letter-spacing="-1.33333333" fill="#1D1D1B">
                        <tspan x="9.06666667" y="17">4</tspan>
                    </text>
                </g>
            </g>
            <g id="Buttons/POI" transform="translate(27.000000, 161.000000)">
                <g id="POI-Copy-8" transform="translate(3.000000, 8.000000)">
                    <g id="Oval">
                        <use fill="black" fill-opacity="1" filter="url(#filter-10)" xlink:href="#path-9"></use>
                        <use fill="#A0D9E2" fill-rule="evenodd" xlink:href="#path-9"></use>
                    </g>
                    <text id="10" font-family="NeueHaasUnicaPro-Bold, Neue Haas Unica Pro" font-size="12" font-weight="bold" line-spacing="40" letter-spacing="-1.33333333" fill="#1D1D1B">
                        <tspan x="9.06666667" y="17">5</tspan>
                    </text>
                </g>
            </g>
            <g id="Buttons/POI" transform="translate(73.000000, 53.000000)">
                <g id="POI-Copy-8" transform="translate(3.000000, 8.000000)">
                    <g id="Oval">
                        <use fill="black" fill-opacity="1" filter="url(#filter-12)" xlink:href="#path-11"></use>
                        <use fill="#A0D9E2" fill-rule="evenodd" xlink:href="#path-11"></use>
                    </g>
                    <text id="10" font-family="NeueHaasUnicaPro-Bold, Neue Haas Unica Pro" font-size="12" font-weight="bold" line-spacing="40" letter-spacing="-1.33333333" fill="#1D1D1B">
                        <tspan x="9.06666667" y="17">6</tspan>
                    </text>
                </g>
            </g>
            <g id="Buttons/POI" transform="translate(81.000000, 0.000000)">
                <g id="POI-Copy-8" transform="translate(3.000000, 8.000000)">
                    <g id="Oval">
                        <use fill="black" fill-opacity="1" filter="url(#filter-14)" xlink:href="#path-13"></use>
                        <use fill="#A0D9E2" fill-rule="evenodd" xlink:href="#path-13"></use>
                    </g>
                    <text id="10" font-family="NeueHaasUnicaPro-Bold, Neue Haas Unica Pro" font-size="12" font-weight="bold" line-spacing="40" letter-spacing="-1.33333333" fill="#1D1D1B">
                        <tspan x="9.06666667" y="17">7</tspan>
                    </text>
                </g>
            </g>
            <g id="Buttons/POI" transform="translate(154.000000, 26.000000)">
                <g id="POI-Copy-8" transform="translate(3.000000, 8.000000)">
                    <g id="Oval">
                        <use fill="black" fill-opacity="1" filter="url(#filter-16)" xlink:href="#path-15"></use>
                        <use fill="#A0D9E2" fill-rule="evenodd" xlink:href="#path-15"></use>
                    </g>
                    <text id="10" font-family="NeueHaasUnicaPro-Bold, Neue Haas Unica Pro" font-size="12" font-weight="bold" line-spacing="40" letter-spacing="-1.33333333" fill="#1D1D1B">
                        <tspan x="9.06666667" y="17">8</tspan>
                    </text>
                </g>
            </g>
            <g id="Buttons/POI" transform="translate(226.000000, 89.000000)">
                <g id="POI-Copy-8" transform="translate(3.000000, 8.000000)">
                    <g id="Oval">
                        <use fill="black" fill-opacity="1" filter="url(#filter-18)" xlink:href="#path-17"></use>
                        <use fill="#A0D9E2" fill-rule="evenodd" xlink:href="#path-17"></use>
                    </g>
                    <text id="10" font-family="NeueHaasUnicaPro-Bold, Neue Haas Unica Pro" font-size="12" font-weight="bold" line-spacing="40" letter-spacing="-1.33333333" fill="#1D1D1B">
                        <tspan x="9.06666667" y="17">9</tspan>
                    </text>
                </g>
            </g>
            <g id="Buttons/POI" transform="translate(275.000000, 118.000000)">
                <g id="POI-Copy-8" transform="translate(3.000000, 8.000000)">
                    <g id="Oval">
                        <use fill="black" fill-opacity="1" filter="url(#filter-20)" xlink:href="#path-19"></use>
                        <use fill="#A0D9E2" fill-rule="evenodd" xlink:href="#path-19"></use>
                    </g>
                    <text id="10" font-family="NeueHaasUnicaPro-Bold, Neue Haas Unica Pro" font-size="12" font-weight="bold" line-spacing="40" letter-spacing="-1.33333333" fill="#1D1D1B">
                        <tspan x="6.13333333" y="17">10</tspan>
                    </text>
                </g>
            </g>
            <g id="Buttons/POI" transform="translate(419.000000, 226.000000)">
                <g id="POI-Copy-8" transform="translate(3.000000, 8.000000)">
                    <g id="Oval">
                        <use fill="black" fill-opacity="1" filter="url(#filter-22)" xlink:href="#path-21"></use>
                        <use fill="#A0D9E2" fill-rule="evenodd" xlink:href="#path-21"></use>
                    </g>
                    <text id="10" font-family="NeueHaasUnicaPro-Bold, Neue Haas Unica Pro" font-size="12" font-weight="bold" line-spacing="40" letter-spacing="-1.33333333" fill="#1D1D1B">
                        <tspan x="6.13333333" y="17">11</tspan>
                    </text>
                </g>
            </g>
            <g id="Buttons/POI" transform="translate(479.000000, 251.000000)">
                <g id="POI-Copy-8" transform="translate(3.000000, 8.000000)">
                    <g id="Oval">
                        <use fill="black" fill-opacity="1" filter="url(#filter-24)" xlink:href="#path-23"></use>
                        <use fill="#A0D9E2" fill-rule="evenodd" xlink:href="#path-23"></use>
                    </g>
                    <text id="10" font-family="NeueHaasUnicaPro-Bold, Neue Haas Unica Pro" font-size="12" font-weight="bold" line-spacing="40" letter-spacing="-1.33333333" fill="#1D1D1B">
                        <tspan x="6.13333333" y="17">12</tspan>
                    </text>
                </g>
            </g>
            <g id="Buttons/POI" transform="translate(653.000000, 324.000000)">
                <g id="POI-Copy-8" transform="translate(3.000000, 8.000000)">
                    <g id="Oval">
                        <use fill="black" fill-opacity="1" filter="url(#filter-26)" xlink:href="#path-25"></use>
                        <use fill="#A0D9E2" fill-rule="evenodd" xlink:href="#path-25"></use>
                    </g>
                    <text id="10" font-family="NeueHaasUnicaPro-Bold, Neue Haas Unica Pro" font-size="12" font-weight="bold" line-spacing="40" letter-spacing="-1.33333333" fill="#1D1D1B">
                        <tspan x="6.13333333" y="17">13</tspan>
                    </text>
                </g>
            </g>
            <g id="Buttons/POI" transform="translate(622.000000, 373.000000)">
                <g id="POI-Copy-8" transform="translate(3.000000, 8.000000)">
                    <g id="Oval">
                        <use fill="black" fill-opacity="1" filter="url(#filter-28)" xlink:href="#path-27"></use>
                        <use fill="#A0D9E2" fill-rule="evenodd" xlink:href="#path-27"></use>
                    </g>
                    <text id="10" font-family="NeueHaasUnicaPro-Bold, Neue Haas Unica Pro" font-size="12" font-weight="bold" line-spacing="40" letter-spacing="-1.33333333" fill="#1D1D1B">
                        <tspan x="6.13333333" y="17">14</tspan>
                    </text>
                </g>
            </g>
            <g id="Buttons/POI" transform="translate(539.000000, 342.000000)">
                <g id="POI-Copy-8" transform="translate(3.000000, 8.000000)">
                    <g id="Oval">
                        <use fill="black" fill-opacity="1" filter="url(#filter-30)" xlink:href="#path-29"></use>
                        <use fill="#A0D9E2" fill-rule="evenodd" xlink:href="#path-29"></use>
                    </g>
                    <text id="10" font-family="NeueHaasUnicaPro-Bold, Neue Haas Unica Pro" font-size="12" font-weight="bold" line-spacing="40" letter-spacing="-1.33333333" fill="#1D1D1B">
                        <tspan x="6.13333333" y="17">15</tspan>
                    </text>
                </g>
            </g>
            <g id="Buttons/POI" transform="translate(548.000000, 442.000000)">
                <g id="POI-Copy-8" transform="translate(3.000000, 8.000000)">
                    <g id="Oval">
                        <use fill="black" fill-opacity="1" filter="url(#filter-32)" xlink:href="#path-31"></use>
                        <use fill="#A0D9E2" fill-rule="evenodd" xlink:href="#path-31"></use>
                    </g>
                    <text id="10" font-family="NeueHaasUnicaPro-Bold, Neue Haas Unica Pro" font-size="12" font-weight="bold" line-spacing="40" letter-spacing="-1.33333333" fill="#1D1D1B">
                        <tspan x="6.13333333" y="17">16</tspan>
                    </text>
                </g>
            </g>
        </g>
    </g>
</svg>