<?xml version="1.0" encoding="UTF-8"?>
<svg width="768px" height="600px" viewBox="0 0 768 600" version="1.1" xmlns="http://www.w3.org/2000/svg" xmlns:xlink="http://www.w3.org/1999/xlink">
    <!-- Generator: Sketch 58 (84663) - https://sketch.com -->
    <title>Race Track 14 Stavelot</title>
    <desc>Created with Sketch.</desc>
    <defs>
        <circle id="path-1" cx="13" cy="13" r="13"></circle>
        <filter x="-215.4%" y="-153.8%" width="530.8%" height="530.8%" filterUnits="objectBoundingBox" id="filter-2">
            <feOffset dx="0" dy="16" in="SourceAlpha" result="shadowOffsetOuter1"></feOffset>
            <feGaussianBlur stdDeviation="16" in="shadowOffsetOuter1" result="shadowBlurOuter1"></feGaussianBlur>
            <feColorMatrix values="0 0 0 0 0.628825005   0 0 0 0 0.850290581   0 0 0 0 0.886973505  0 0 0 0.3 0" type="matrix" in="shadowBlurOuter1"></feColorMatrix>
        </filter>
        <circle id="path-3" cx="13" cy="13" r="13"></circle>
        <filter x="-215.4%" y="-153.8%" width="530.8%" height="530.8%" filterUnits="objectBoundingBox" id="filter-4">
            <feOffset dx="0" dy="16" in="SourceAlpha" result="shadowOffsetOuter1"></feOffset>
            <feGaussianBlur stdDeviation="16" in="shadowOffsetOuter1" result="shadowBlurOuter1"></feGaussianBlur>
            <feColorMatrix values="0 0 0 0 0.628825005   0 0 0 0 0.850290581   0 0 0 0 0.886973505  0 0 0 0.3 0" type="matrix" in="shadowBlurOuter1"></feColorMatrix>
        </filter>
        <circle id="path-5" cx="13" cy="13" r="13"></circle>
        <filter x="-215.4%" y="-153.8%" width="530.8%" height="530.8%" filterUnits="objectBoundingBox" id="filter-6">
            <feOffset dx="0" dy="16" in="SourceAlpha" result="shadowOffsetOuter1"></feOffset>
            <feGaussianBlur stdDeviation="16" in="shadowOffsetOuter1" result="shadowBlurOuter1"></feGaussianBlur>
            <feColorMatrix values="0 0 0 0 0.628825005   0 0 0 0 0.850290581   0 0 0 0 0.886973505  0 0 0 0.3 0" type="matrix" in="shadowBlurOuter1"></feColorMatrix>
        </filter>
        <circle id="path-7" cx="13" cy="13" r="13"></circle>
        <filter x="-215.4%" y="-153.8%" width="530.8%" height="530.8%" filterUnits="objectBoundingBox" id="filter-8">
            <feOffset dx="0" dy="16" in="SourceAlpha" result="shadowOffsetOuter1"></feOffset>
            <feGaussianBlur stdDeviation="16" in="shadowOffsetOuter1" result="shadowBlurOuter1"></feGaussianBlur>
            <feColorMatrix values="0 0 0 0 0.628825005   0 0 0 0 0.850290581   0 0 0 0 0.886973505  0 0 0 0.3 0" type="matrix" in="shadowBlurOuter1"></feColorMatrix>
        </filter>
        <circle id="path-9" cx="13" cy="13" r="13"></circle>
        <filter x="-215.4%" y="-153.8%" width="530.8%" height="530.8%" filterUnits="objectBoundingBox" id="filter-10">
            <feOffset dx="0" dy="16" in="SourceAlpha" result="shadowOffsetOuter1"></feOffset>
            <feGaussianBlur stdDeviation="16" in="shadowOffsetOuter1" result="shadowBlurOuter1"></feGaussianBlur>
            <feColorMatrix values="0 0 0 0 0.628825005   0 0 0 0 0.850290581   0 0 0 0 0.886973505  0 0 0 0.3 0" type="matrix" in="shadowBlurOuter1"></feColorMatrix>
        </filter>
        <circle id="path-11" cx="13" cy="13" r="13"></circle>
        <filter x="-215.4%" y="-153.8%" width="530.8%" height="530.8%" filterUnits="objectBoundingBox" id="filter-12">
            <feOffset dx="0" dy="16" in="SourceAlpha" result="shadowOffsetOuter1"></feOffset>
            <feGaussianBlur stdDeviation="16" in="shadowOffsetOuter1" result="shadowBlurOuter1"></feGaussianBlur>
            <feColorMatrix values="0 0 0 0 0.628825005   0 0 0 0 0.850290581   0 0 0 0 0.886973505  0 0 0 0.3 0" type="matrix" in="shadowBlurOuter1"></feColorMatrix>
        </filter>
        <circle id="path-13" cx="13" cy="13" r="13"></circle>
        <filter x="-215.4%" y="-153.8%" width="530.8%" height="530.8%" filterUnits="objectBoundingBox" id="filter-14">
            <feOffset dx="0" dy="16" in="SourceAlpha" result="shadowOffsetOuter1"></feOffset>
            <feGaussianBlur stdDeviation="16" in="shadowOffsetOuter1" result="shadowBlurOuter1"></feGaussianBlur>
            <feColorMatrix values="0 0 0 0 0.628825005   0 0 0 0 0.850290581   0 0 0 0 0.886973505  0 0 0 0.3 0" type="matrix" in="shadowBlurOuter1"></feColorMatrix>
        </filter>
        <circle id="path-15" cx="13" cy="13" r="13"></circle>
        <filter x="-215.4%" y="-153.8%" width="530.8%" height="530.8%" filterUnits="objectBoundingBox" id="filter-16">
            <feOffset dx="0" dy="16" in="SourceAlpha" result="shadowOffsetOuter1"></feOffset>
            <feGaussianBlur stdDeviation="16" in="shadowOffsetOuter1" result="shadowBlurOuter1"></feGaussianBlur>
            <feColorMatrix values="0 0 0 0 0.628825005   0 0 0 0 0.850290581   0 0 0 0 0.886973505  0 0 0 0.3 0" type="matrix" in="shadowBlurOuter1"></feColorMatrix>
        </filter>
        <circle id="path-17" cx="13" cy="13" r="13"></circle>
        <filter x="-215.4%" y="-153.8%" width="530.8%" height="530.8%" filterUnits="objectBoundingBox" id="filter-18">
            <feOffset dx="0" dy="16" in="SourceAlpha" result="shadowOffsetOuter1"></feOffset>
            <feGaussianBlur stdDeviation="16" in="shadowOffsetOuter1" result="shadowBlurOuter1"></feGaussianBlur>
            <feColorMatrix values="0 0 0 0 0.628825005   0 0 0 0 0.850290581   0 0 0 0 0.886973505  0 0 0 0.3 0" type="matrix" in="shadowBlurOuter1"></feColorMatrix>
        </filter>
        <circle id="path-19" cx="13" cy="13" r="13"></circle>
        <filter x="-215.4%" y="-153.8%" width="530.8%" height="530.8%" filterUnits="objectBoundingBox" id="filter-20">
            <feOffset dx="0" dy="16" in="SourceAlpha" result="shadowOffsetOuter1"></feOffset>
            <feGaussianBlur stdDeviation="16" in="shadowOffsetOuter1" result="shadowBlurOuter1"></feGaussianBlur>
            <feColorMatrix values="0 0 0 0 0.628825005   0 0 0 0 0.850290581   0 0 0 0 0.886973505  0 0 0 0.3 0" type="matrix" in="shadowBlurOuter1"></feColorMatrix>
        </filter>
        <circle id="path-21" cx="13" cy="13" r="13"></circle>
        <filter x="-215.4%" y="-153.8%" width="530.8%" height="530.8%" filterUnits="objectBoundingBox" id="filter-22">
            <feOffset dx="0" dy="16" in="SourceAlpha" result="shadowOffsetOuter1"></feOffset>
            <feGaussianBlur stdDeviation="16" in="shadowOffsetOuter1" result="shadowBlurOuter1"></feGaussianBlur>
            <feColorMatrix values="0 0 0 0 0.628825005   0 0 0 0 0.850290581   0 0 0 0 0.886973505  0 0 0 0.3 0" type="matrix" in="shadowBlurOuter1"></feColorMatrix>
        </filter>
        <circle id="path-23" cx="13" cy="13" r="13"></circle>
        <filter x="-215.4%" y="-153.8%" width="530.8%" height="530.8%" filterUnits="objectBoundingBox" id="filter-24">
            <feOffset dx="0" dy="16" in="SourceAlpha" result="shadowOffsetOuter1"></feOffset>
            <feGaussianBlur stdDeviation="16" in="shadowOffsetOuter1" result="shadowBlurOuter1"></feGaussianBlur>
            <feColorMatrix values="0 0 0 0 0.628825005   0 0 0 0 0.850290581   0 0 0 0 0.886973505  0 0 0 0.3 0" type="matrix" in="shadowBlurOuter1"></feColorMatrix>
        </filter>
        <circle id="path-25" cx="13" cy="13" r="13"></circle>
        <filter x="-215.4%" y="-153.8%" width="530.8%" height="530.8%" filterUnits="objectBoundingBox" id="filter-26">
            <feOffset dx="0" dy="16" in="SourceAlpha" result="shadowOffsetOuter1"></feOffset>
            <feGaussianBlur stdDeviation="16" in="shadowOffsetOuter1" result="shadowBlurOuter1"></feGaussianBlur>
            <feColorMatrix values="0 0 0 0 0.628825005   0 0 0 0 0.850290581   0 0 0 0 0.886973505  0 0 0 0.3 0" type="matrix" in="shadowBlurOuter1"></feColorMatrix>
        </filter>
        <circle id="path-27" cx="13" cy="13" r="13"></circle>
        <filter x="-215.4%" y="-153.8%" width="530.8%" height="530.8%" filterUnits="objectBoundingBox" id="filter-28">
            <feOffset dx="0" dy="16" in="SourceAlpha" result="shadowOffsetOuter1"></feOffset>
            <feGaussianBlur stdDeviation="16" in="shadowOffsetOuter1" result="shadowBlurOuter1"></feGaussianBlur>
            <feColorMatrix values="0 0 0 0 0.628825005   0 0 0 0 0.850290581   0 0 0 0 0.886973505  0 0 0 0.3 0" type="matrix" in="shadowBlurOuter1"></feColorMatrix>
        </filter>
        <circle id="path-29" cx="13" cy="13" r="13"></circle>
        <filter x="-215.4%" y="-153.8%" width="530.8%" height="530.8%" filterUnits="objectBoundingBox" id="filter-30">
            <feOffset dx="0" dy="16" in="SourceAlpha" result="shadowOffsetOuter1"></feOffset>
            <feGaussianBlur stdDeviation="16" in="shadowOffsetOuter1" result="shadowBlurOuter1"></feGaussianBlur>
            <feColorMatrix values="0 0 0 0 0.628825005   0 0 0 0 0.850290581   0 0 0 0 0.886973505  0 0 0 0.3 0" type="matrix" in="shadowBlurOuter1"></feColorMatrix>
        </filter>
        <circle id="path-31" cx="13" cy="13" r="13"></circle>
        <filter x="-215.4%" y="-153.8%" width="530.8%" height="530.8%" filterUnits="objectBoundingBox" id="filter-32">
            <feOffset dx="0" dy="16" in="SourceAlpha" result="shadowOffsetOuter1"></feOffset>
            <feGaussianBlur stdDeviation="16" in="shadowOffsetOuter1" result="shadowBlurOuter1"></feGaussianBlur>
            <feColorMatrix values="0 0 0 0 0.628825005   0 0 0 0 0.850290581   0 0 0 0 0.886973505  0 0 0 0.3 0" type="matrix" in="shadowBlurOuter1"></feColorMatrix>
        </filter>
        <circle id="path-33" cx="13" cy="13" r="13"></circle>
        <filter x="-215.4%" y="-153.8%" width="530.8%" height="530.8%" filterUnits="objectBoundingBox" id="filter-34">
            <feOffset dx="0" dy="16" in="SourceAlpha" result="shadowOffsetOuter1"></feOffset>
            <feGaussianBlur stdDeviation="16" in="shadowOffsetOuter1" result="shadowBlurOuter1"></feGaussianBlur>
            <feColorMatrix values="0 0 0 0 0.628825005   0 0 0 0 0.850290581   0 0 0 0 0.886973505  0 0 0 0.3 0" type="matrix" in="shadowBlurOuter1"></feColorMatrix>
        </filter>
        <circle id="path-35" cx="13" cy="13" r="13"></circle>
        <filter x="-215.4%" y="-153.8%" width="530.8%" height="530.8%" filterUnits="objectBoundingBox" id="filter-36">
            <feOffset dx="0" dy="16" in="SourceAlpha" result="shadowOffsetOuter1"></feOffset>
            <feGaussianBlur stdDeviation="16" in="shadowOffsetOuter1" result="shadowBlurOuter1"></feGaussianBlur>
            <feColorMatrix values="0 0 0 0 0.628825005   0 0 0 0 0.850290581   0 0 0 0 0.886973505  0 0 0 0.3 0" type="matrix" in="shadowBlurOuter1"></feColorMatrix>
        </filter>
        <circle id="path-37" cx="13" cy="13" r="13"></circle>
        <filter x="-215.4%" y="-153.8%" width="530.8%" height="530.8%" filterUnits="objectBoundingBox" id="filter-38">
            <feOffset dx="0" dy="16" in="SourceAlpha" result="shadowOffsetOuter1"></feOffset>
            <feGaussianBlur stdDeviation="16" in="shadowOffsetOuter1" result="shadowBlurOuter1"></feGaussianBlur>
            <feColorMatrix values="0 0 0 0 0.628825005   0 0 0 0 0.850290581   0 0 0 0 0.886973505  0 0 0 0.3 0" type="matrix" in="shadowBlurOuter1"></feColorMatrix>
        </filter>
        <circle id="path-39" cx="13" cy="13" r="13"></circle>
        <filter x="-215.4%" y="-153.8%" width="530.8%" height="530.8%" filterUnits="objectBoundingBox" id="filter-40">
            <feOffset dx="0" dy="16" in="SourceAlpha" result="shadowOffsetOuter1"></feOffset>
            <feGaussianBlur stdDeviation="16" in="shadowOffsetOuter1" result="shadowBlurOuter1"></feGaussianBlur>
            <feColorMatrix values="0 0 0 0 0.628825005   0 0 0 0 0.850290581   0 0 0 0 0.886973505  0 0 0 0.3 0" type="matrix" in="shadowBlurOuter1"></feColorMatrix>
        </filter>
    </defs>
    <g id="Race-Track-14-Stavelot" stroke="none" stroke-width="1" fill="none" fill-rule="evenodd">
        <g transform="translate(39.000000, 74.000000)">
            <polygon id="Triangle" fill="#0C111B" transform="translate(150.000000, 333.000000) rotate(-120.000000) translate(-150.000000, -333.000000) " points="150 320 158 346 142 346"></polygon>
            <g id="Buttons/POI" transform="translate(0.000000, 397.000000)">
                <g id="POI-Copy-8" transform="translate(3.000000, 8.000000)">
                    <g id="Oval">
                        <use fill="black" fill-opacity="1" filter="url(#filter-2)" xlink:href="#path-1"></use>
                        <use fill="#A0D9E2" fill-rule="evenodd" xlink:href="#path-1"></use>
                    </g>
                    <text id="10" font-family="NeueHaasUnicaPro-Bold, Neue Haas Unica Pro" font-size="12" font-weight="bold" line-spacing="40" letter-spacing="-1.33333333" fill="#1D1D1B">
                        <tspan x="9.06666667" y="17">1</tspan>
                    </text>
                </g>
            </g>
            <g id="Buttons/POI" transform="translate(25.000000, 264.000000)">
                <g id="POI-Copy-8" transform="translate(3.000000, 8.000000)">
                    <g id="Oval">
                        <use fill="black" fill-opacity="1" filter="url(#filter-4)" xlink:href="#path-3"></use>
                        <use fill="#A0D9E2" fill-rule="evenodd" xlink:href="#path-3"></use>
                    </g>
                    <text id="10" font-family="NeueHaasUnicaPro-Bold, Neue Haas Unica Pro" font-size="12" font-weight="bold" line-spacing="40" letter-spacing="-1.33333333" fill="#1D1D1B">
                        <tspan x="9.06666667" y="17">2</tspan>
                    </text>
                </g>
            </g>
            <g id="Buttons/POI" transform="translate(104.000000, 190.000000)">
                <g id="POI-Copy-8" transform="translate(3.000000, 8.000000)">
                    <g id="Oval">
                        <use fill="black" fill-opacity="1" filter="url(#filter-6)" xlink:href="#path-5"></use>
                        <use fill="#A0D9E2" fill-rule="evenodd" xlink:href="#path-5"></use>
                    </g>
                    <text id="10" font-family="NeueHaasUnicaPro-Bold, Neue Haas Unica Pro" font-size="12" font-weight="bold" line-spacing="40" letter-spacing="-1.33333333" fill="#1D1D1B">
                        <tspan x="9.06666667" y="17">3</tspan>
                    </text>
                </g>
            </g>
            <g id="Buttons/POI" transform="translate(156.000000, 190.000000)">
                <g id="POI-Copy-8" transform="translate(3.000000, 8.000000)">
                    <g id="Oval">
                        <use fill="black" fill-opacity="1" filter="url(#filter-8)" xlink:href="#path-7"></use>
                        <use fill="#A0D9E2" fill-rule="evenodd" xlink:href="#path-7"></use>
                    </g>
                    <text id="10" font-family="NeueHaasUnicaPro-Bold, Neue Haas Unica Pro" font-size="12" font-weight="bold" line-spacing="40" letter-spacing="-1.33333333" fill="#1D1D1B">
                        <tspan x="9.06666667" y="17">4</tspan>
                    </text>
                </g>
            </g>
            <g id="Buttons/POI" transform="translate(171.000000, 140.000000)">
                <g id="POI-Copy-8" transform="translate(3.000000, 8.000000)">
                    <g id="Oval">
                        <use fill="black" fill-opacity="1" filter="url(#filter-10)" xlink:href="#path-9"></use>
                        <use fill="#A0D9E2" fill-rule="evenodd" xlink:href="#path-9"></use>
                    </g>
                    <text id="10" font-family="NeueHaasUnicaPro-Bold, Neue Haas Unica Pro" font-size="12" font-weight="bold" line-spacing="40" letter-spacing="-1.33333333" fill="#1D1D1B">
                        <tspan x="9.06666667" y="17">5</tspan>
                    </text>
                </g>
            </g>
            <g id="Buttons/POI" transform="translate(250.000000, 82.000000)">
                <g id="POI-Copy-8" transform="translate(3.000000, 8.000000)">
                    <g id="Oval">
                        <use fill="black" fill-opacity="1" filter="url(#filter-12)" xlink:href="#path-11"></use>
                        <use fill="#A0D9E2" fill-rule="evenodd" xlink:href="#path-11"></use>
                    </g>
                    <text id="10" font-family="NeueHaasUnicaPro-Bold, Neue Haas Unica Pro" font-size="12" font-weight="bold" line-spacing="40" letter-spacing="-1.33333333" fill="#1D1D1B">
                        <tspan x="9.06666667" y="17">6</tspan>
                    </text>
                </g>
            </g>
            <g id="Buttons/POI" transform="translate(504.000000, 28.000000)">
                <g id="POI-Copy-8" transform="translate(3.000000, 8.000000)">
                    <g id="Oval">
                        <use fill="black" fill-opacity="1" filter="url(#filter-14)" xlink:href="#path-13"></use>
                        <use fill="#A0D9E2" fill-rule="evenodd" xlink:href="#path-13"></use>
                    </g>
                    <text id="10" font-family="NeueHaasUnicaPro-Bold, Neue Haas Unica Pro" font-size="12" font-weight="bold" line-spacing="40" letter-spacing="-1.33333333" fill="#1D1D1B">
                        <tspan x="9.06666667" y="17">7</tspan>
                    </text>
                </g>
            </g>
            <g id="Buttons/POI" transform="translate(541.000000, 0.000000)">
                <g id="POI-Copy-8" transform="translate(3.000000, 8.000000)">
                    <g id="Oval">
                        <use fill="black" fill-opacity="1" filter="url(#filter-16)" xlink:href="#path-15"></use>
                        <use fill="#A0D9E2" fill-rule="evenodd" xlink:href="#path-15"></use>
                    </g>
                    <text id="10" font-family="NeueHaasUnicaPro-Bold, Neue Haas Unica Pro" font-size="12" font-weight="bold" line-spacing="40" letter-spacing="-1.33333333" fill="#1D1D1B">
                        <tspan x="9.06666667" y="17">8</tspan>
                    </text>
                </g>
            </g>
            <g id="Buttons/POI" transform="translate(576.000000, 33.000000)">
                <g id="POI-Copy-8" transform="translate(3.000000, 8.000000)">
                    <g id="Oval">
                        <use fill="black" fill-opacity="1" filter="url(#filter-18)" xlink:href="#path-17"></use>
                        <use fill="#A0D9E2" fill-rule="evenodd" xlink:href="#path-17"></use>
                    </g>
                    <text id="10" font-family="NeueHaasUnicaPro-Bold, Neue Haas Unica Pro" font-size="12" font-weight="bold" line-spacing="40" letter-spacing="-1.33333333" fill="#1D1D1B">
                        <tspan x="9.06666667" y="17">9</tspan>
                    </text>
                </g>
            </g>
            <g id="Buttons/POI" transform="translate(663.000000, 132.000000)">
                <g id="POI-Copy-8" transform="translate(3.000000, 8.000000)">
                    <g id="Oval">
                        <use fill="black" fill-opacity="1" filter="url(#filter-20)" xlink:href="#path-19"></use>
                        <use fill="#A0D9E2" fill-rule="evenodd" xlink:href="#path-19"></use>
                    </g>
                    <text id="10" font-family="NeueHaasUnicaPro-Bold, Neue Haas Unica Pro" font-size="12" font-weight="bold" line-spacing="40" letter-spacing="-1.33333333" fill="#1D1D1B">
                        <tspan x="6.13333333" y="17">10</tspan>
                    </text>
                </g>
            </g>
            <g id="Buttons/POI" transform="translate(592.000000, 96.000000)">
                <g id="POI-Copy-8" transform="translate(3.000000, 8.000000)">
                    <g id="Oval">
                        <use fill="black" fill-opacity="1" filter="url(#filter-22)" xlink:href="#path-21"></use>
                        <use fill="#A0D9E2" fill-rule="evenodd" xlink:href="#path-21"></use>
                    </g>
                    <text id="10" font-family="NeueHaasUnicaPro-Bold, Neue Haas Unica Pro" font-size="12" font-weight="bold" line-spacing="40" letter-spacing="-1.33333333" fill="#1D1D1B">
                        <tspan x="6.13333333" y="17">11</tspan>
                    </text>
                </g>
            </g>
            <g id="Buttons/POI" transform="translate(398.000000, 158.000000)">
                <g id="POI-Copy-8" transform="translate(3.000000, 8.000000)">
                    <g id="Oval">
                        <use fill="black" fill-opacity="1" filter="url(#filter-24)" xlink:href="#path-23"></use>
                        <use fill="#A0D9E2" fill-rule="evenodd" xlink:href="#path-23"></use>
                    </g>
                    <text id="10" font-family="NeueHaasUnicaPro-Bold, Neue Haas Unica Pro" font-size="12" font-weight="bold" line-spacing="40" letter-spacing="-1.33333333" fill="#1D1D1B">
                        <tspan x="6.13333333" y="17">12</tspan>
                    </text>
                </g>
            </g>
            <g id="Buttons/POI" transform="translate(592.000000, 237.000000)">
                <g id="POI-Copy-8" transform="translate(3.000000, 8.000000)">
                    <g id="Oval">
                        <use fill="black" fill-opacity="1" filter="url(#filter-26)" xlink:href="#path-25"></use>
                        <use fill="#A0D9E2" fill-rule="evenodd" xlink:href="#path-25"></use>
                    </g>
                    <text id="10" font-family="NeueHaasUnicaPro-Bold, Neue Haas Unica Pro" font-size="12" font-weight="bold" line-spacing="40" letter-spacing="-1.33333333" fill="#1D1D1B">
                        <tspan x="6.13333333" y="17">13</tspan>
                    </text>
                </g>
            </g>
            <g id="Buttons/POI" transform="translate(585.000000, 284.000000)">
                <g id="POI-Copy-8" transform="translate(3.000000, 8.000000)">
                    <g id="Oval">
                        <use fill="black" fill-opacity="1" filter="url(#filter-28)" xlink:href="#path-27"></use>
                        <use fill="#A0D9E2" fill-rule="evenodd" xlink:href="#path-27"></use>
                    </g>
                    <text id="10" font-family="NeueHaasUnicaPro-Bold, Neue Haas Unica Pro" font-size="12" font-weight="bold" line-spacing="40" letter-spacing="-1.33333333" fill="#1D1D1B">
                        <tspan x="6.13333333" y="17">14</tspan>
                    </text>
                </g>
            </g>
            <g id="Buttons/POI" transform="translate(663.000000, 340.000000)">
                <g id="POI-Copy-8" transform="translate(3.000000, 8.000000)">
                    <g id="Oval">
                        <use fill="black" fill-opacity="1" filter="url(#filter-30)" xlink:href="#path-29"></use>
                        <use fill="#A0D9E2" fill-rule="evenodd" xlink:href="#path-29"></use>
                    </g>
                    <text id="10" font-family="NeueHaasUnicaPro-Bold, Neue Haas Unica Pro" font-size="12" font-weight="bold" line-spacing="40" letter-spacing="-1.33333333" fill="#1D1D1B">
                        <tspan x="6.13333333" y="17">15</tspan>
                    </text>
                </g>
            </g>
            <g id="Buttons/POI" transform="translate(607.000000, 425.000000)">
                <g id="POI-Copy-8" transform="translate(3.000000, 8.000000)">
                    <g id="Oval">
                        <use fill="black" fill-opacity="1" filter="url(#filter-32)" xlink:href="#path-31"></use>
                        <use fill="#A0D9E2" fill-rule="evenodd" xlink:href="#path-31"></use>
                    </g>
                    <text id="10" font-family="NeueHaasUnicaPro-Bold, Neue Haas Unica Pro" font-size="12" font-weight="bold" line-spacing="40" letter-spacing="-1.33333333" fill="#1D1D1B">
                        <tspan x="6.13333333" y="17">16</tspan>
                    </text>
                </g>
            </g>
            <g id="Buttons/POI" transform="translate(452.000000, 255.000000)">
                <g id="POI-Copy-8" transform="translate(3.000000, 8.000000)">
                    <g id="Oval">
                        <use fill="black" fill-opacity="1" filter="url(#filter-34)" xlink:href="#path-33"></use>
                        <use fill="#A0D9E2" fill-rule="evenodd" xlink:href="#path-33"></use>
                    </g>
                    <text id="10" font-family="NeueHaasUnicaPro-Bold, Neue Haas Unica Pro" font-size="12" font-weight="bold" line-spacing="40" letter-spacing="-1.33333333" fill="#1D1D1B">
                        <tspan x="6.13333333" y="17">17</tspan>
                    </text>
                </g>
            </g>
            <g id="Buttons/POI" transform="translate(337.000000, 264.000000)">
                <g id="POI-Copy-8" transform="translate(3.000000, 8.000000)">
                    <g id="Oval">
                        <use fill="black" fill-opacity="1" filter="url(#filter-36)" xlink:href="#path-35"></use>
                        <use fill="#A0D9E2" fill-rule="evenodd" xlink:href="#path-35"></use>
                    </g>
                    <text id="10" font-family="NeueHaasUnicaPro-Bold, Neue Haas Unica Pro" font-size="12" font-weight="bold" line-spacing="40" letter-spacing="-1.33333333" fill="#1D1D1B">
                        <tspan x="6.13333333" y="17">18</tspan>
                    </text>
                </g>
            </g>
            <g id="Buttons/POI" transform="translate(187.000000, 310.000000)">
                <g id="POI-Copy-8" transform="translate(3.000000, 8.000000)">
                    <g id="Oval">
                        <use fill="black" fill-opacity="1" filter="url(#filter-38)" xlink:href="#path-37"></use>
                        <use fill="#A0D9E2" fill-rule="evenodd" xlink:href="#path-37"></use>
                    </g>
                    <text id="10" font-family="NeueHaasUnicaPro-Bold, Neue Haas Unica Pro" font-size="12" font-weight="bold" line-spacing="40" letter-spacing="-1.33333333" fill="#1D1D1B">
                        <tspan x="6.13333333" y="17">19</tspan>
                    </text>
                </g>
            </g>
            <g id="Buttons/POI" transform="translate(172.000000, 248.000000)">
                <g id="POI-Copy-8" transform="translate(3.000000, 8.000000)">
                    <g id="Oval">
                        <use fill="black" fill-opacity="1" filter="url(#filter-40)" xlink:href="#path-39"></use>
                        <use fill="#A0D9E2" fill-rule="evenodd" xlink:href="#path-39"></use>
                    </g>
                    <text id="10" font-family="NeueHaasUnicaPro-Bold, Neue Haas Unica Pro" font-size="12" font-weight="bold" line-spacing="40" letter-spacing="-1.33333333" fill="#1D1D1B">
                        <tspan x="6.13333333" y="17">20</tspan>
                    </text>
                </g>
            </g>
            <path d="M139.485212,317.076962 C107.807277,339.475043 75.2155781,360.576723 42.3520038,381.190312 C37.5136563,384.225124 33.0749044,388.234706 27.6308243,389.954778 C25.7328622,390.554781 23.4343654,391.337701 21.6763323,390.401959 C20.2634258,389.650545 19.4318349,387.825143 19.2947233,386.22874 C18.9101536,381.745173 22.6008962,376.318342 23.8893692,373.53839 C32.7020736,354.526377 39.1843512,338.150899 48.4703723,321.295794 C53.0687746,312.948884 57.8798877,304.625956 63.8325015,297.187045 C72.5409636,286.303759 83.5098882,277.446188 93.3058516,267.532969 C102.205425,258.526809 111.093259,249.509833 119.926154,240.438312 C126.070818,234.126993 132.983682,228.465991 138.275155,221.422537 C142.086105,216.349783 144.053562,210.067148 147.751818,204.911164 C150.504379,201.073683 153.408139,197.197644 157.129873,194.292613 C161.457809,190.913598 166.605596,188.624087 171.751975,186.714986 C178.422546,184.240208 185.945839,184.51858 192.521559,181.800697 C197.682494,179.6673 202.073351,176.316499 206.610241,173.20457 C214.619058,167.711437 221.991153,161.33993 229.726686,155.465448 C237.75053,149.371371 245.731643,143.216637 253.89072,137.304536 C260.140565,132.775359 266.407784,128.260758 272.874566,124.047569 C275.863316,122.10038 278.87038,120.163536 282.024415,118.49754 C286.807354,115.970567 291.771074,113.782625 296.795837,111.779479 C310.038842,106.499357 323.838275,102.73288 337.22966,97.8416312 C388.066118,79.2735077 474.864307,44.6073366 488.699427,39.3634216 C499.353277,35.3256259 509.729147,30.1639998 520.887774,27.8702573 C523.224775,27.3896905 525.701235,26.9142961 528.032601,27.4230762 C531.344408,28.1453371 534.221873,29.988607 536.815253,32.0439471 C539.456529,34.1373751 541.033312,37.0842559 543.261844,39.4974349 C544.409449,40.739291 545.301614,42.0408653 546.63986,42.9258229 C548.474431,44.1389955 550.50434,44.8034191 552.593413,45.1617282 C554.512975,45.4908836 556.408119,45.2792837 558.250204,44.8636075 C564.578466,43.4346031 570.153083,39.6751788 576.242339,37.4350415 C579.826961,36.1165392 583.384818,34.5812646 587.143177,33.9022642 C590.079337,33.372324 593.174677,32.8513181 596.084541,33.5096288 C599.12823,34.198504 602.21324,35.6514897 604.351148,37.9076145 C619.646599,54.0470418 636.292036,73.7775539 651.96971,91.9685594 C656.287785,96.978774 660.772553,101.861558 664.761467,107.138389 C666.333084,109.21724 668.111778,111.221326 669.137767,113.618047 C670.413092,116.598784 671.530645,119.89598 671.211814,123.123113 C670.955904,125.714036 669.618127,128.175178 668.085483,130.27848 C666.772123,132.081311 665.011273,133.610003 663.069172,134.70562 C661.078707,135.82851 658.794766,136.460488 656.529608,136.757668 C654.586099,137.012528 652.548208,137.010648 650.654472,136.504219 C648.316062,135.879294 646.128382,134.632265 644.209289,133.155298 C641.445928,131.028014 639.419776,128.078312 637.168705,125.414034 C629.276808,116.073546 620.044317,102.523631 614.53262,96.5447592 C612.704153,94.5618333 609.505039,93.7934907 606.732287,93.3251496 C604.13515,92.8859623 601.400901,93.1412928 598.842738,93.7718604 C593.917991,94.9873841 589.653916,98.0814444 584.989775,100.077536 C578.478384,102.863601 571.861813,105.397157 565.271067,107.98808 C557.836991,110.910509 550.468653,114.021027 542.907796,116.599254 C534.674998,119.406479 526.291472,121.76041 517.900902,124.052272 C502.329349,128.305429 486.466199,131.438048 470.906385,135.734465 C466.307983,137.004064 461.576225,137.96896 457.212134,139.89828 C453.883422,141.370075 450.645805,143.179959 447.829383,145.487809 C445.445896,147.44064 443.131904,149.653975 441.626963,152.344585 C439.753418,155.695386 439.040157,159.615626 438.391224,163.400443 C437.805213,166.820837 437.863908,170.325401 437.821179,173.795639 C437.769996,177.889861 437.692989,182.009005 438.188375,186.073604 C438.796924,191.069241 439.73041,196.074754 441.373401,200.831049 C442.759073,204.842042 444.47015,208.830464 446.940506,212.279072 C448.592418,214.58457 450.793716,216.467338 452.98891,218.261705 C455.380379,220.215947 458.040907,221.823636 460.685,223.419099 C463.726811,225.255316 466.764395,227.166298 470.063055,228.487621 C482.213863,233.354889 495.367181,235.195337 507.941532,238.827802 C524.739106,243.680492 541.499585,248.680832 558.11497,254.126942 C563.961464,256.042626 570.100962,257.344201 575.531425,260.238417 C577.982059,261.544223 580.33033,263.176833 582.205283,265.227001 C584.137523,267.340649 585.80587,269.824361 586.715408,272.541303 C587.658755,275.357933 587.852213,278.459987 587.549347,281.415331 C587.230516,284.518796 586.076337,287.411131 585.167268,290.359893 C583.620537,295.377631 580.765142,300.034239 579.947169,305.221257 C579.461643,308.303091 579.498269,311.533516 580.18054,314.577733 C580.905541,317.811449 582.263509,320.982626 584.199505,323.670414 C585.062557,324.86854 586.278248,325.787353 587.474687,326.651621 C595.305072,332.309802 603.940282,336.921738 612.725752,340.867841 C624.509364,346.160659 637.628874,350.97197 647.879841,359.356497 C650.310754,361.345065 652.489513,363.820784 653.834333,366.660924 C655.005416,369.135232 655.679704,371.980075 655.47122,374.710183 C655.206857,378.17807 653.651204,381.516646 651.864059,384.498793 C645.194896,395.626595 639.224439,404.836832 631.272908,414.655066 C629.011506,417.446773 626.145781,419.81246 623.026023,421.591309 C620.274401,423.15997 617.30772,424.205743 614.243371,424.731451 C609.822462,425.489919 605.360702,425.233178 600.970784,424.682078 C592.50978,423.619847 584.242705,421.164818 576.156879,418.451167 C568.673969,415.939712 561.257267,413.035621 554.359428,409.194379 C545.246675,404.119273 536.894609,397.718612 528.79094,391.147261 C520.635151,384.53406 512.732454,377.516938 505.698443,369.716897 C496.482386,359.497093 488.814939,347.9649 480.879842,336.718603 C474.46659,327.629683 469.263394,317.691072 462.475903,308.878173 C457.283976,302.137071 452.111771,295.16274 445.482052,289.833244 C439.508778,285.031338 432.297273,281.994645 425.441226,278.57331 C418.260712,274.990689 410.975956,271.53926 403.401012,268.894262 C391.048294,264.580916 378.346223,261.088108 365.452572,258.877124 C360.36254,258.003922 355.149483,257.096394 350.011556,257.615049 C344.871282,258.133233 339.911318,259.988729 335.125561,261.937328 C327.079648,265.214775 319.850301,270.22499 312.137306,274.225638 C301.438378,279.775197 291.012265,285.965669 279.835795,290.474157 C274.298273,292.707711 268.489344,294.216183 262.727372,295.780611 C256.82641,297.383128 250.83717,298.643322 244.864835,299.954771 C225.509567,304.204167 194.578702,311.915336 186.632805,311.924271 C185.034892,311.926151 182.497859,310.212192 181.581747,308.366571 C180.963336,307.119543 181.657816,305.583328 181.730598,304.192882 C181.881326,301.30807 183.079174,298.335797 182.326,295.546911 C181.934387,294.096747 181.021562,292.686081 179.79554,291.820402 C178.832003,291.139521 177.547286,290.828234 176.371977,290.92604 C174.313426,291.096731 172.372734,292.225263 170.715187,293.459596 C159.388457,301.898669 150.141409,309.542596 139.485212,317.076962 Z" id="Stroke-1" stroke="#011321" stroke-width="2"></path>
        </g>
    </g>
</svg>