<svg id="Livello_1" data-name="Livello 1" xmlns="http://www.w3.org/2000/svg" xmlns:xlink="http://www.w3.org/1999/xlink" viewBox="0 0 768 600"><defs><style>.cls-1{fill:#0c111b;fill-rule:evenodd;}.cls-2{filter:url(#filter-2);}.cls-3{fill:#a0d9e2;}.cls-4,.cls-5{isolation:isolate;}.cls-5{font-size:12px;fill:#1d1d1b;font-family:NeueHaasUnicaPro-Bold, Neue Haas Unica Pro;font-weight:700;letter-spacing:-0.11em;}.cls-6{filter:url(#filter-4);}.cls-7{filter:url(#filter-6);}.cls-8{filter:url(#filter-8);}.cls-9{filter:url(#filter-10);}.cls-10{filter:url(#filter-12);}.cls-11{filter:url(#filter-14);}.cls-12{filter:url(#filter-16);}.cls-13{filter:url(#filter-18);}.cls-14{filter:url(#filter-20);}.cls-15{filter:url(#filter-22);}.cls-16{filter:url(#filter-24);}.cls-17{filter:url(#filter-26);}.cls-18{filter:url(#filter-28);}.cls-19{filter:url(#filter-30);}.cls-20{filter:url(#filter-32);}.cls-21{filter:url(#filter-34);}.cls-22{filter:url(#filter-36);}.cls-23{filter:url(#filter-38);}.cls-24{filter:url(#filter-40);}.cls-25{fill:none;stroke:#011321;stroke-width:2px;}</style><filter id="filter-2" x="-215.4" y="-153.8" width="530.8" height="530.8" name="filter-2"><feOffset result="shadowOffsetOuter1" dy="16" in="SourceAlpha"/><feGaussianBlur result="shadowBlurOuter1" stdDeviation="16" in="shadowOffsetOuter1"/><feColorMatrix values="0 0 0 0 0.63 0 0 0 0 0.85 0 0 0 0 0.89 0 0 0 0.3 0" in="shadowBlurOuter1"/></filter><filter id="filter-4" x="-215.4" y="-153.8" width="530.8" height="530.8" name="filter-4"><feOffset result="shadowOffsetOuter1" dy="16" in="SourceAlpha"/><feGaussianBlur result="shadowBlurOuter1" stdDeviation="16" in="shadowOffsetOuter1"/><feColorMatrix values="0 0 0 0 0.63 0 0 0 0 0.85 0 0 0 0 0.89 0 0 0 0.3 0" in="shadowBlurOuter1"/></filter><filter id="filter-6" x="-215.4" y="-153.8" width="530.8" height="530.8" name="filter-6"><feOffset result="shadowOffsetOuter1" dy="16" in="SourceAlpha"/><feGaussianBlur result="shadowBlurOuter1" stdDeviation="16" in="shadowOffsetOuter1"/><feColorMatrix values="0 0 0 0 0.63 0 0 0 0 0.85 0 0 0 0 0.89 0 0 0 0.3 0" in="shadowBlurOuter1"/></filter><filter id="filter-8" x="-215.4" y="-153.8" width="530.8" height="530.8" name="filter-8"><feOffset result="shadowOffsetOuter1" dy="16" in="SourceAlpha"/><feGaussianBlur result="shadowBlurOuter1" stdDeviation="16" in="shadowOffsetOuter1"/><feColorMatrix values="0 0 0 0 0.63 0 0 0 0 0.85 0 0 0 0 0.89 0 0 0 0.3 0" in="shadowBlurOuter1"/></filter><filter id="filter-10" x="-215.4" y="-153.8" width="530.8" height="530.8" name="filter-10"><feOffset result="shadowOffsetOuter1" dy="16" in="SourceAlpha"/><feGaussianBlur result="shadowBlurOuter1" stdDeviation="16" in="shadowOffsetOuter1"/><feColorMatrix values="0 0 0 0 0.63 0 0 0 0 0.85 0 0 0 0 0.89 0 0 0 0.3 0" in="shadowBlurOuter1"/></filter><filter id="filter-12" x="-215.4" y="-153.8" width="530.8" height="530.8" name="filter-12"><feOffset result="shadowOffsetOuter1" dy="16" in="SourceAlpha"/><feGaussianBlur result="shadowBlurOuter1" stdDeviation="16" in="shadowOffsetOuter1"/><feColorMatrix values="0 0 0 0 0.63 0 0 0 0 0.85 0 0 0 0 0.89 0 0 0 0.3 0" in="shadowBlurOuter1"/></filter><filter id="filter-14" x="-215.4" y="-153.8" width="530.8" height="530.8" name="filter-14"><feOffset result="shadowOffsetOuter1" dy="16" in="SourceAlpha"/><feGaussianBlur result="shadowBlurOuter1" stdDeviation="16" in="shadowOffsetOuter1"/><feColorMatrix values="0 0 0 0 0.63 0 0 0 0 0.85 0 0 0 0 0.89 0 0 0 0.3 0" in="shadowBlurOuter1"/></filter><filter id="filter-16" x="-215.4" y="-153.8" width="530.8" height="530.8" name="filter-16"><feOffset result="shadowOffsetOuter1" dy="16" in="SourceAlpha"/><feGaussianBlur result="shadowBlurOuter1" stdDeviation="16" in="shadowOffsetOuter1"/><feColorMatrix values="0 0 0 0 0.63 0 0 0 0 0.85 0 0 0 0 0.89 0 0 0 0.3 0" in="shadowBlurOuter1"/></filter><filter id="filter-18" x="-215.4" y="-153.8" width="530.8" height="530.8" name="filter-18"><feOffset result="shadowOffsetOuter1" dy="16" in="SourceAlpha"/><feGaussianBlur result="shadowBlurOuter1" stdDeviation="16" in="shadowOffsetOuter1"/><feColorMatrix values="0 0 0 0 0.63 0 0 0 0 0.85 0 0 0 0 0.89 0 0 0 0.3 0" in="shadowBlurOuter1"/></filter><filter id="filter-20" x="-215.4" y="-153.8" width="530.8" height="530.8" name="filter-20"><feOffset result="shadowOffsetOuter1" dy="16" in="SourceAlpha"/><feGaussianBlur result="shadowBlurOuter1" stdDeviation="16" in="shadowOffsetOuter1"/><feColorMatrix values="0 0 0 0 0.63 0 0 0 0 0.85 0 0 0 0 0.89 0 0 0 0.3 0" in="shadowBlurOuter1"/></filter><filter id="filter-22" x="-215.4" y="-153.8" width="530.8" height="530.8" name="filter-22"><feOffset result="shadowOffsetOuter1" dy="16" in="SourceAlpha"/><feGaussianBlur result="shadowBlurOuter1" stdDeviation="16" in="shadowOffsetOuter1"/><feColorMatrix values="0 0 0 0 0.63 0 0 0 0 0.85 0 0 0 0 0.89 0 0 0 0.3 0" in="shadowBlurOuter1"/></filter><filter id="filter-24" x="-215.4" y="-153.8" width="530.8" height="530.8" name="filter-24"><feOffset result="shadowOffsetOuter1" dy="16" in="SourceAlpha"/><feGaussianBlur result="shadowBlurOuter1" stdDeviation="16" in="shadowOffsetOuter1"/><feColorMatrix values="0 0 0 0 0.63 0 0 0 0 0.85 0 0 0 0 0.89 0 0 0 0.3 0" in="shadowBlurOuter1"/></filter><filter id="filter-26" x="-215.4" y="-153.8" width="530.8" height="530.8" name="filter-26"><feOffset result="shadowOffsetOuter1" dy="16" in="SourceAlpha"/><feGaussianBlur result="shadowBlurOuter1" stdDeviation="16" in="shadowOffsetOuter1"/><feColorMatrix values="0 0 0 0 0.63 0 0 0 0 0.85 0 0 0 0 0.89 0 0 0 0.3 0" in="shadowBlurOuter1"/></filter><filter id="filter-28" x="-215.4" y="-153.8" width="530.8" height="530.8" name="filter-28"><feOffset result="shadowOffsetOuter1" dy="16" in="SourceAlpha"/><feGaussianBlur result="shadowBlurOuter1" stdDeviation="16" in="shadowOffsetOuter1"/><feColorMatrix values="0 0 0 0 0.63 0 0 0 0 0.85 0 0 0 0 0.89 0 0 0 0.3 0" in="shadowBlurOuter1"/></filter><filter id="filter-30" x="-215.4" y="-153.8" width="530.8" height="530.8" name="filter-30"><feOffset result="shadowOffsetOuter1" dy="16" in="SourceAlpha"/><feGaussianBlur result="shadowBlurOuter1" stdDeviation="16" in="shadowOffsetOuter1"/><feColorMatrix values="0 0 0 0 0.63 0 0 0 0 0.85 0 0 0 0 0.89 0 0 0 0.3 0" in="shadowBlurOuter1"/></filter><filter id="filter-32" x="-215.4" y="-153.8" width="530.8" height="530.8" name="filter-32"><feOffset result="shadowOffsetOuter1" dy="16" in="SourceAlpha"/><feGaussianBlur result="shadowBlurOuter1" stdDeviation="16" in="shadowOffsetOuter1"/><feColorMatrix values="0 0 0 0 0.63 0 0 0 0 0.85 0 0 0 0 0.89 0 0 0 0.3 0" in="shadowBlurOuter1"/></filter><filter id="filter-34" x="-215.4" y="-153.8" width="530.8" height="530.8" name="filter-34"><feOffset result="shadowOffsetOuter1" dy="16" in="SourceAlpha"/><feGaussianBlur result="shadowBlurOuter1" stdDeviation="16" in="shadowOffsetOuter1"/><feColorMatrix values="0 0 0 0 0.63 0 0 0 0 0.85 0 0 0 0 0.89 0 0 0 0.3 0" in="shadowBlurOuter1"/></filter><filter id="filter-36" x="-215.4" y="-153.8" width="530.8" height="530.8" name="filter-36"><feOffset result="shadowOffsetOuter1" dy="16" in="SourceAlpha"/><feGaussianBlur result="shadowBlurOuter1" stdDeviation="16" in="shadowOffsetOuter1"/><feColorMatrix values="0 0 0 0 0.63 0 0 0 0 0.85 0 0 0 0 0.89 0 0 0 0.3 0" in="shadowBlurOuter1"/></filter><filter id="filter-38" x="-215.4" y="-153.8" width="530.8" height="530.8" name="filter-38"><feOffset result="shadowOffsetOuter1" dy="16" in="SourceAlpha"/><feGaussianBlur result="shadowBlurOuter1" stdDeviation="16" in="shadowOffsetOuter1"/><feColorMatrix values="0 0 0 0 0.63 0 0 0 0 0.85 0 0 0 0 0.89 0 0 0 0.3 0" in="shadowBlurOuter1"/></filter><filter id="filter-40" x="-215.4" y="-153.8" width="530.8" height="530.8" name="filter-40"><feOffset result="shadowOffsetOuter1" dy="16" in="SourceAlpha"/><feGaussianBlur result="shadowBlurOuter1" stdDeviation="16" in="shadowOffsetOuter1"/><feColorMatrix values="0 0 0 0 0.63 0 0 0 0 0.85 0 0 0 0 0.89 0 0 0 0.3 0" in="shadowBlurOuter1"/></filter></defs><title>Race Track Imola</title><polygon id="Triangle" class="cls-1" points="344.19 420.19 317.02 421.55 320.95 406.04 344.19 420.19"/><g id="POI-Copy-8"><g id="Oval"><g class="cls-2"><circle id="path-1" cx="435.01" cy="466.98" r="13"/></g><circle class="cls-3" cx="435.01" cy="466.98" r="13"/></g><g class="cls-4"><text class="cls-5" transform="translate(431.08 470.98)">1</text></g></g><g class="cls-6"><circle id="path-3" cx="567.5" cy="446.37" r="13"/></g><circle class="cls-3" cx="567.5" cy="446.37" r="13"/><g class="cls-4"><text class="cls-5" transform="translate(563.57 450.37)">2</text></g><g class="cls-7"><circle id="path-5" cx="554.5" cy="385.55" r="13"/></g><circle class="cls-3" cx="554.5" cy="385.55" r="13"/><g class="cls-4"><text class="cls-5" transform="translate(550.57 389.55)">3</text></g><g class="cls-8"><circle id="path-7" cx="619.37" cy="389.25" r="13"/></g><circle class="cls-3" cx="619.37" cy="389.25" r="13"/><g class="cls-4"><text class="cls-5" transform="translate(615.43 393.25)">4</text></g><g class="cls-9"><circle id="path-9" cx="677.87" cy="238.55" r="13"/></g><circle class="cls-3" cx="677.87" cy="238.55" r="13"/><g class="cls-4"><text class="cls-5" transform="translate(673.93 242.55)">5</text></g><g class="cls-10"><circle id="path-11" cx="628.43" cy="191.94" r="13"/></g><circle class="cls-3" cx="628.43" cy="191.94" r="13"/><g class="cls-4"><text class="cls-5" transform="translate(624.5 195.94)">6</text></g><g class="cls-11"><circle id="path-13" cx="742.06" cy="117.01" r="13"/></g><circle class="cls-3" cx="742.06" cy="117.01" r="13"/><g class="cls-4"><text class="cls-5" transform="translate(738.12 121.01)">7</text></g><g class="cls-12"><circle id="path-15" cx="602.43" cy="98.2" r="13"/></g><circle class="cls-3" cx="602.43" cy="98.2" r="13"/><g class="cls-4"><text class="cls-5" transform="translate(598.5 102.2)">8</text></g><g class="cls-13"><circle id="path-17" cx="514.31" cy="93.41" r="13"/></g><circle class="cls-3" cx="514.31" cy="93.41" r="13"/><g class="cls-4"><text class="cls-5" transform="translate(510.38 97.41)">9</text></g><g class="cls-14"><circle id="path-19" cx="435.01" cy="155.4" r="13"/></g><circle class="cls-3" cx="435.01" cy="155.4" r="13"/><g class="cls-4"><text class="cls-5" transform="translate(428.14 159.4)">10</text></g><g class="cls-15"><circle id="path-21" cx="501.31" cy="242.55" r="13"/></g><circle class="cls-3" cx="501.31" cy="242.55" r="13"/><g class="cls-4"><text class="cls-5" transform="translate(494.44 246.55)">11</text></g><g class="cls-16"><circle id="path-23" cx="475.31" cy="307.09" r="13"/></g><circle class="cls-3" cx="475.31" cy="307.09" r="13"/><g class="cls-4"><text class="cls-5" transform="translate(468.44 311.09)">12</text></g><g class="cls-17"><circle id="path-25" cx="448.01" cy="257.63" r="13"/></g><circle class="cls-3" cx="448.01" cy="257.63" r="13"/><g class="cls-4"><text class="cls-5" transform="translate(441.14 261.63)">13</text></g><g class="cls-18"><circle id="path-27" cx="296.38" cy="311.09" r="13"/></g><circle class="cls-3" cx="296.38" cy="311.09" r="13"/><g class="cls-4"><text class="cls-5" transform="translate(289.51 315.09)">14</text></g><g class="cls-19"><circle id="path-29" cx="276.51" cy="257.63" r="13"/></g><circle class="cls-3" cx="276.51" cy="257.63" r="13"/><g class="cls-4"><text class="cls-5" transform="translate(269.64 261.63)">15</text></g><g class="cls-20"><circle id="path-31" cx="189.26" cy="298.09" r="13"/></g><circle class="cls-3" cx="189.26" cy="298.09" r="13"/><g class="cls-4"><text class="cls-5" transform="translate(182.4 302.09)">16</text></g><g class="cls-21"><circle id="path-33" cx="169.4" cy="385.55" r="13"/></g><circle class="cls-3" cx="169.4" cy="385.55" r="13"/><g class="cls-4"><text class="cls-5" transform="translate(162.53 389.55)">17</text></g><g class="cls-22"><circle id="path-35" cx="31.61" cy="433.37" r="13"/></g><circle class="cls-3" cx="31.61" cy="433.37" r="13"/><g class="cls-4"><text class="cls-5" transform="translate(24.75 437.37)">18</text></g><g class="cls-23"><circle id="path-37" cx="69.69" cy="500.92" r="13"/></g><circle class="cls-3" cx="69.69" cy="500.92" r="13"/><g class="cls-4"><text class="cls-5" transform="translate(62.83 504.92)">19</text></g><g class="cls-24"><circle id="path-39" cx="202.1" cy="459.37" r="13"/></g><circle class="cls-3" cx="202.1" cy="459.37" r="13"/><g class="cls-4"><text class="cls-5" transform="translate(195.24 463.37)">20</text></g><path class="cls-25" d="M274.84,279.41c-11.42,4.74-22.78,9.92-33.7,15.69a292.41,292.41,0,0,0-25.74,15.18,292.2,292.2,0,0,0-36.81,34.13C170.84,352.84,163,362.16,153.7,369A61.09,61.09,0,0,1,143,375.28c-16.56,7.67-32.88,14.94-49,23.58-10.77,5.77-22.59,12.48-32,20.23-2.46,2-11.37,9.67-9.74,13.59l16.72,40.11a13.56,13.56,0,0,0,5.47,6.62c10,5.8,30.87-4,40-8.4,5.79-2.79,11.51-5.86,17.19-8.88,7.5-3.95,15-7.9,22.56-11.75,11.42-5.78,34.21-17.35,46.79-18l120.54-5.92c4.29-.22,9.36.58,13.61,1.25,6.56,1.05,13.11,2.34,19.63,3.62,16.77,3.28,33.43,6.61,50.32,9a296.75,296.75,0,0,0,33.41,3.11c6.9.2,14.05-.21,20.93-.68,9.15-.6,18.31-1.45,27.42-2.43s18.22-2.12,27.28-3.48c6.85-1,13.9-2.13,20.64-3.72,8.79-2.07,20.94-5.81,25.8-14.22,3.14-5.44,3-12,5.58-17.76a19.52,19.52,0,0,1,9.49-9.8c23.47-14.63,30.48-16.64,39.73-44a58.26,58.26,0,0,1,1.85-6.21c1.29-3.95,2.64-7.9,3.94-11.77,3.83-11,7.77-22,11.73-33q6.25-17.35,12.64-34.7c.65-1.78,3.95-11.32,5.85-15.54,1.53-5.59,3-12.08,2.7-17.91a27.63,27.63,0,0,0-2.45-9.78A59.69,59.69,0,0,1,647.62,207a14.52,14.52,0,0,1-.27-2.8,15.39,15.39,0,0,1,.09-1.66c.88-7.72,7.7-13.82,13.58-18.24,3-2.25,6.19-4.29,9.36-6.33a50,50,0,0,0,6.07-4.25c11.62-10.55,47.64-34.88,42.52-53.35l-1.19-2.23a19.29,19.29,0,0,0-3.6-4c-18.84-16-69.5.88-91.76,4.42-19.57,3.1-38.24,5.49-58.13,4.43-18.81-1-37.49-6.15-56.24-6.48h-.54a53.5,53.5,0,0,0-37.31,15.17c-8.56,8.25-15,20.12-14,32.3a29,29,0,0,0,1.1,6.06l19.47,65.82c3.39,11.47-3.24,31.05-6.72,42.63-1,3.23-2.61,6.5-6.1,7.52-4.07,1.18-8.36-1.69-11.92-3.36a28.75,28.75,0,0,0-13-3.11l-1.35,0-120.91,6.32c-8,.41-17.68,3.55-25.37,1.86-3.55-.74-5.3-1.14-7.32-6-1.42-3.43-5.16-4-9.21-2.29Z"/></svg>