<?xml version="1.0" encoding="UTF-8"?>
<svg width="768px" height="600px" viewBox="0 0 768 600" version="1.1" xmlns="http://www.w3.org/2000/svg" xmlns:xlink="http://www.w3.org/1999/xlink">
    <!-- Generator: Sketch 58 (84663) - https://sketch.com -->
    <title>Race Track 18 Suzuka</title>
    <desc>Created with Sketch.</desc>
    <defs>
        <circle id="path-1" cx="13" cy="13" r="13"></circle>
        <filter x="-215.4%" y="-153.8%" width="530.8%" height="530.8%" filterUnits="objectBoundingBox" id="filter-2">
            <feOffset dx="0" dy="16" in="SourceAlpha" result="shadowOffsetOuter1"></feOffset>
            <feGaussianBlur stdDeviation="16" in="shadowOffsetOuter1" result="shadowBlurOuter1"></feGaussianBlur>
            <feColorMatrix values="0 0 0 0 0.628825005   0 0 0 0 0.850290581   0 0 0 0 0.886973505  0 0 0 0.3 0" type="matrix" in="shadowBlurOuter1"></feColorMatrix>
        </filter>
        <circle id="path-3" cx="13" cy="13" r="13"></circle>
        <filter x="-215.4%" y="-153.8%" width="530.8%" height="530.8%" filterUnits="objectBoundingBox" id="filter-4">
            <feOffset dx="0" dy="16" in="SourceAlpha" result="shadowOffsetOuter1"></feOffset>
            <feGaussianBlur stdDeviation="16" in="shadowOffsetOuter1" result="shadowBlurOuter1"></feGaussianBlur>
            <feColorMatrix values="0 0 0 0 0.628825005   0 0 0 0 0.850290581   0 0 0 0 0.886973505  0 0 0 0.3 0" type="matrix" in="shadowBlurOuter1"></feColorMatrix>
        </filter>
        <circle id="path-5" cx="13" cy="13" r="13"></circle>
        <filter x="-215.4%" y="-153.8%" width="530.8%" height="530.8%" filterUnits="objectBoundingBox" id="filter-6">
            <feOffset dx="0" dy="16" in="SourceAlpha" result="shadowOffsetOuter1"></feOffset>
            <feGaussianBlur stdDeviation="16" in="shadowOffsetOuter1" result="shadowBlurOuter1"></feGaussianBlur>
            <feColorMatrix values="0 0 0 0 0.628825005   0 0 0 0 0.850290581   0 0 0 0 0.886973505  0 0 0 0.3 0" type="matrix" in="shadowBlurOuter1"></feColorMatrix>
        </filter>
        <circle id="path-7" cx="13" cy="13" r="13"></circle>
        <filter x="-215.4%" y="-153.8%" width="530.8%" height="530.8%" filterUnits="objectBoundingBox" id="filter-8">
            <feOffset dx="0" dy="16" in="SourceAlpha" result="shadowOffsetOuter1"></feOffset>
            <feGaussianBlur stdDeviation="16" in="shadowOffsetOuter1" result="shadowBlurOuter1"></feGaussianBlur>
            <feColorMatrix values="0 0 0 0 0.628825005   0 0 0 0 0.850290581   0 0 0 0 0.886973505  0 0 0 0.3 0" type="matrix" in="shadowBlurOuter1"></feColorMatrix>
        </filter>
        <circle id="path-9" cx="13" cy="13" r="13"></circle>
        <filter x="-215.4%" y="-153.8%" width="530.8%" height="530.8%" filterUnits="objectBoundingBox" id="filter-10">
            <feOffset dx="0" dy="16" in="SourceAlpha" result="shadowOffsetOuter1"></feOffset>
            <feGaussianBlur stdDeviation="16" in="shadowOffsetOuter1" result="shadowBlurOuter1"></feGaussianBlur>
            <feColorMatrix values="0 0 0 0 0.628825005   0 0 0 0 0.850290581   0 0 0 0 0.886973505  0 0 0 0.3 0" type="matrix" in="shadowBlurOuter1"></feColorMatrix>
        </filter>
        <circle id="path-11" cx="13" cy="13" r="13"></circle>
        <filter x="-215.4%" y="-153.8%" width="530.8%" height="530.8%" filterUnits="objectBoundingBox" id="filter-12">
            <feOffset dx="0" dy="16" in="SourceAlpha" result="shadowOffsetOuter1"></feOffset>
            <feGaussianBlur stdDeviation="16" in="shadowOffsetOuter1" result="shadowBlurOuter1"></feGaussianBlur>
            <feColorMatrix values="0 0 0 0 0.628825005   0 0 0 0 0.850290581   0 0 0 0 0.886973505  0 0 0 0.3 0" type="matrix" in="shadowBlurOuter1"></feColorMatrix>
        </filter>
        <circle id="path-13" cx="13" cy="13" r="13"></circle>
        <filter x="-215.4%" y="-153.8%" width="530.8%" height="530.8%" filterUnits="objectBoundingBox" id="filter-14">
            <feOffset dx="0" dy="16" in="SourceAlpha" result="shadowOffsetOuter1"></feOffset>
            <feGaussianBlur stdDeviation="16" in="shadowOffsetOuter1" result="shadowBlurOuter1"></feGaussianBlur>
            <feColorMatrix values="0 0 0 0 0.628825005   0 0 0 0 0.850290581   0 0 0 0 0.886973505  0 0 0 0.3 0" type="matrix" in="shadowBlurOuter1"></feColorMatrix>
        </filter>
        <circle id="path-15" cx="13" cy="13" r="13"></circle>
        <filter x="-215.4%" y="-153.8%" width="530.8%" height="530.8%" filterUnits="objectBoundingBox" id="filter-16">
            <feOffset dx="0" dy="16" in="SourceAlpha" result="shadowOffsetOuter1"></feOffset>
            <feGaussianBlur stdDeviation="16" in="shadowOffsetOuter1" result="shadowBlurOuter1"></feGaussianBlur>
            <feColorMatrix values="0 0 0 0 0.628825005   0 0 0 0 0.850290581   0 0 0 0 0.886973505  0 0 0 0.3 0" type="matrix" in="shadowBlurOuter1"></feColorMatrix>
        </filter>
        <circle id="path-17" cx="13" cy="13" r="13"></circle>
        <filter x="-215.4%" y="-153.8%" width="530.8%" height="530.8%" filterUnits="objectBoundingBox" id="filter-18">
            <feOffset dx="0" dy="16" in="SourceAlpha" result="shadowOffsetOuter1"></feOffset>
            <feGaussianBlur stdDeviation="16" in="shadowOffsetOuter1" result="shadowBlurOuter1"></feGaussianBlur>
            <feColorMatrix values="0 0 0 0 0.628825005   0 0 0 0 0.850290581   0 0 0 0 0.886973505  0 0 0 0.3 0" type="matrix" in="shadowBlurOuter1"></feColorMatrix>
        </filter>
        <circle id="path-19" cx="13" cy="13" r="13"></circle>
        <filter x="-215.4%" y="-153.8%" width="530.8%" height="530.8%" filterUnits="objectBoundingBox" id="filter-20">
            <feOffset dx="0" dy="16" in="SourceAlpha" result="shadowOffsetOuter1"></feOffset>
            <feGaussianBlur stdDeviation="16" in="shadowOffsetOuter1" result="shadowBlurOuter1"></feGaussianBlur>
            <feColorMatrix values="0 0 0 0 0.628825005   0 0 0 0 0.850290581   0 0 0 0 0.886973505  0 0 0 0.3 0" type="matrix" in="shadowBlurOuter1"></feColorMatrix>
        </filter>
        <circle id="path-21" cx="13" cy="13" r="13"></circle>
        <filter x="-215.4%" y="-153.8%" width="530.8%" height="530.8%" filterUnits="objectBoundingBox" id="filter-22">
            <feOffset dx="0" dy="16" in="SourceAlpha" result="shadowOffsetOuter1"></feOffset>
            <feGaussianBlur stdDeviation="16" in="shadowOffsetOuter1" result="shadowBlurOuter1"></feGaussianBlur>
            <feColorMatrix values="0 0 0 0 0.628825005   0 0 0 0 0.850290581   0 0 0 0 0.886973505  0 0 0 0.3 0" type="matrix" in="shadowBlurOuter1"></feColorMatrix>
        </filter>
        <circle id="path-23" cx="13" cy="13" r="13"></circle>
        <filter x="-215.4%" y="-153.8%" width="530.8%" height="530.8%" filterUnits="objectBoundingBox" id="filter-24">
            <feOffset dx="0" dy="16" in="SourceAlpha" result="shadowOffsetOuter1"></feOffset>
            <feGaussianBlur stdDeviation="16" in="shadowOffsetOuter1" result="shadowBlurOuter1"></feGaussianBlur>
            <feColorMatrix values="0 0 0 0 0.628825005   0 0 0 0 0.850290581   0 0 0 0 0.886973505  0 0 0 0.3 0" type="matrix" in="shadowBlurOuter1"></feColorMatrix>
        </filter>
        <circle id="path-25" cx="13" cy="13" r="13"></circle>
        <filter x="-215.4%" y="-153.8%" width="530.8%" height="530.8%" filterUnits="objectBoundingBox" id="filter-26">
            <feOffset dx="0" dy="16" in="SourceAlpha" result="shadowOffsetOuter1"></feOffset>
            <feGaussianBlur stdDeviation="16" in="shadowOffsetOuter1" result="shadowBlurOuter1"></feGaussianBlur>
            <feColorMatrix values="0 0 0 0 0.628825005   0 0 0 0 0.850290581   0 0 0 0 0.886973505  0 0 0 0.3 0" type="matrix" in="shadowBlurOuter1"></feColorMatrix>
        </filter>
        <circle id="path-27" cx="13" cy="13" r="13"></circle>
        <filter x="-215.4%" y="-153.8%" width="530.8%" height="530.8%" filterUnits="objectBoundingBox" id="filter-28">
            <feOffset dx="0" dy="16" in="SourceAlpha" result="shadowOffsetOuter1"></feOffset>
            <feGaussianBlur stdDeviation="16" in="shadowOffsetOuter1" result="shadowBlurOuter1"></feGaussianBlur>
            <feColorMatrix values="0 0 0 0 0.628825005   0 0 0 0 0.850290581   0 0 0 0 0.886973505  0 0 0 0.3 0" type="matrix" in="shadowBlurOuter1"></feColorMatrix>
        </filter>
        <circle id="path-29" cx="13" cy="13" r="13"></circle>
        <filter x="-215.4%" y="-153.8%" width="530.8%" height="530.8%" filterUnits="objectBoundingBox" id="filter-30">
            <feOffset dx="0" dy="16" in="SourceAlpha" result="shadowOffsetOuter1"></feOffset>
            <feGaussianBlur stdDeviation="16" in="shadowOffsetOuter1" result="shadowBlurOuter1"></feGaussianBlur>
            <feColorMatrix values="0 0 0 0 0.628825005   0 0 0 0 0.850290581   0 0 0 0 0.886973505  0 0 0 0.3 0" type="matrix" in="shadowBlurOuter1"></feColorMatrix>
        </filter>
        <circle id="path-31" cx="13" cy="13" r="13"></circle>
        <filter x="-215.4%" y="-153.8%" width="530.8%" height="530.8%" filterUnits="objectBoundingBox" id="filter-32">
            <feOffset dx="0" dy="16" in="SourceAlpha" result="shadowOffsetOuter1"></feOffset>
            <feGaussianBlur stdDeviation="16" in="shadowOffsetOuter1" result="shadowBlurOuter1"></feGaussianBlur>
            <feColorMatrix values="0 0 0 0 0.628825005   0 0 0 0 0.850290581   0 0 0 0 0.886973505  0 0 0 0.3 0" type="matrix" in="shadowBlurOuter1"></feColorMatrix>
        </filter>
        <circle id="path-33" cx="13" cy="13" r="13"></circle>
        <filter x="-215.4%" y="-153.8%" width="530.8%" height="530.8%" filterUnits="objectBoundingBox" id="filter-34">
            <feOffset dx="0" dy="16" in="SourceAlpha" result="shadowOffsetOuter1"></feOffset>
            <feGaussianBlur stdDeviation="16" in="shadowOffsetOuter1" result="shadowBlurOuter1"></feGaussianBlur>
            <feColorMatrix values="0 0 0 0 0.628825005   0 0 0 0 0.850290581   0 0 0 0 0.886973505  0 0 0 0.3 0" type="matrix" in="shadowBlurOuter1"></feColorMatrix>
        </filter>
        <circle id="path-35" cx="13" cy="13" r="13"></circle>
        <filter x="-215.4%" y="-153.8%" width="530.8%" height="530.8%" filterUnits="objectBoundingBox" id="filter-36">
            <feOffset dx="0" dy="16" in="SourceAlpha" result="shadowOffsetOuter1"></feOffset>
            <feGaussianBlur stdDeviation="16" in="shadowOffsetOuter1" result="shadowBlurOuter1"></feGaussianBlur>
            <feColorMatrix values="0 0 0 0 0.628825005   0 0 0 0 0.850290581   0 0 0 0 0.886973505  0 0 0 0.3 0" type="matrix" in="shadowBlurOuter1"></feColorMatrix>
        </filter>
    </defs>
    <g id="Race-Track-18-Suzuka" stroke="none" stroke-width="1" fill="none" fill-rule="evenodd">
        <g transform="translate(15.000000, 20.000000)">
            <polygon id="Triangle" fill="#0C111B" transform="translate(191.000000, 518.000000) rotate(-98.000000) translate(-191.000000, -518.000000) " points="191 505 199 531 183 531"></polygon>
            <path d="M420.026927,226.131557 C443.807988,233.95186 467.552088,242.113759 490.721599,250.994688 C494.460351,252.427151 497.300817,255.816229 499.862388,258.90347 C507.846718,268.529191 514.207525,279.937369 522.360424,289.134135 C523.815939,290.775475 526.591441,291.386987 528.688189,291.418907 C530.45788,291.445787 532.701915,290.541398 533.96086,289.309413 C535.338531,287.96319 536.354423,285.631379 536.597475,283.685403 C536.823167,281.882225 536.204335,279.766012 535.367092,278.061393 C533.040733,273.321611 529.752804,268.983345 527.106108,264.352203 C523.190947,257.500688 519.286426,250.629573 515.681521,243.61286 C512.724009,237.857811 509.546966,232.112283 507.419976,226.036918 C505.445315,220.394988 504.062044,214.381223 503.377129,208.460976 C502.889904,204.245908 503.333446,199.850523 503.904676,195.630975 C504.388541,192.058779 505.306428,188.479864 506.540731,185.085186 C508.588196,179.457256 510.79527,173.764366 513.747741,168.564271 C517.181278,162.515786 521.436937,156.860416 525.699876,151.340005 C528.585144,147.604291 531.787388,144.066255 535.191803,140.794215 C540.810012,135.395322 546.597909,130.076508 552.768306,125.327767 C558.550043,120.878622 564.630276,116.633315 571.048205,113.200558 C577.227003,109.896039 583.865024,107.165512 590.559048,105.115378 C596.110053,103.415799 601.999315,102.587569 607.784413,101.951977 C612.662823,101.416064 617.66444,101.071668 622.549011,101.600302 C642.565,103.766915 662.550186,108.288299 682.485531,110.037157 C685.926907,110.338993 689.638218,109.259327 692.680294,107.751825 C696.141832,106.037126 699.519926,103.376599 701.996373,100.369997 C705.261901,96.4052459 707.897956,91.6156254 709.905659,86.8366446 C712.05785,81.7143882 713.723375,76.1407773 714.475494,70.6668452 C715.012002,66.7670536 715.041683,62.3571083 713.773218,58.7154735 C712.346825,54.6236042 709.457636,50.5345349 706.390359,47.466893 C704.419057,45.4962774 701.379781,44.4362106 698.656361,43.6001409 C695.461957,42.6201531 691.971858,41.8966421 688.638007,42.0187206 C683.945526,42.1900784 679.134318,43.1739862 674.576244,44.47933 C667.475079,46.5132248 660.579445,49.3798293 653.65973,52.0369963 C645.931893,55.0043995 638.210216,58.0222021 630.633587,61.3519208 C623.679709,64.4083628 616.793036,67.6608025 610.06933,71.1943587 C600.739811,76.0970979 591.327407,80.9639975 582.473352,86.6608068 C571.934171,93.4428827 561.821731,100.966949 551.889621,108.631014 C541.54981,116.609235 531.764987,125.306487 521.657588,133.588225 C510.02859,143.116507 498.232704,152.443191 486.679871,162.061072 C474.79718,171.952229 463.005775,181.958745 451.349896,192.115899 C433.828276,207.384669 416.040082,222.503362 399.146814,238.339965 C397.290878,240.079304 395.830883,242.425115 395.103966,244.843165 C392.783767,252.560429 391.035917,260.696568 390.006584,268.745908 C389.102698,275.811901 388.509627,283.11757 389.303748,290.188602 C390.969834,305.028418 394.230881,319.816715 397.388883,334.479013 C400.148705,347.293334 404.875348,359.767179 407.0561,372.61902 C408.21536,379.451495 407.909024,386.762764 407.407798,393.5342 C407.323234,394.672106 406.347664,395.924251 405.29817,396.345925 C400.957387,398.091424 395.420382,398.073504 391.236967,400.0374 C389.678967,400.768191 388.141128,402.748886 388.072805,404.431105 C387.907036,408.490495 389.34519,412.94244 389.693528,417.261666 C390.106269,422.374403 390.221075,427.693217 389.517679,432.728114 C389.108298,435.660798 388.414422,438.426603 387.19412,441.16441 C386.012459,443.816537 384.746794,446.479304 383.151272,448.897914 C381.114447,451.986275 378.915214,455.097597 376.29652,457.685325 C373.876636,460.077615 370.989127,462.10535 368.035535,463.836848 C361.4972,467.670561 354.743253,471.302676 347.821857,474.382637 C343.552758,476.282134 338.980683,477.553318 334.463491,478.776343 C330.543849,479.83809 326.535163,480.64504 322.511357,481.237512 C283.120053,487.030641 243.611703,492.114258 204.218719,497.934265 C178.576682,501.722618 153.03993,506.209843 127.407973,510.060915 C108.980226,512.830081 90.523918,515.675405 72.0401684,517.794979 C68.5528693,518.194814 64.9804457,517.961297 61.4942666,517.619141 C58.4180286,517.316745 55.2561061,516.87379 52.3545971,515.861323 C49.0453871,514.706617 45.7137759,513.155997 42.8626694,511.115942 C38.9172667,508.293017 35.1835549,504.916819 31.9650695,501.273504 C28.9733958,497.886666 26.1648516,494.040074 24.2310722,490.024923 C23.118295,487.712712 22.8254,484.874667 22.8254,482.291979 C22.8254,479.367136 23.1395761,476.172375 24.2310722,473.503448 C25.2486445,471.016519 27.2322664,468.774867 29.1526051,466.824971 C31.040462,464.908675 33.2800171,463.136857 35.6562192,461.903752 C37.9080949,460.735047 40.5088685,459.995856 43.0385184,459.618981 C47.1877716,459.000188 51.4719917,459.067387 55.6940486,458.915629 C72.7396444,458.305797 89.8877254,458.416116 106.842596,457.334209 C109.163356,457.186371 111.466754,456.278062 113.52206,455.225275 C116.153635,453.875692 118.773449,452.168833 120.904359,450.128218 C122.933343,448.184482 124.533905,445.702033 126.001181,443.273343 C127.93216,440.078023 128.972133,436.27399 131.098563,433.255068 C132.60448,431.118134 134.698988,429.219198 136.899341,427.806895 C139.444671,426.172835 142.413944,424.879252 145.336174,424.115981 C147.570129,423.531908 150.029215,423.681426 152.366775,423.764305 C155.009551,423.857824 157.703849,424.025822 160.276622,424.642934 C167.956856,426.486432 175.450041,429.247757 183.126356,431.146694 C186.347641,431.942444 189.705014,432.789713 192.969421,432.728114 C195.915733,432.672115 198.991411,431.867405 201.757953,430.795018 C204.733386,429.640872 207.651136,427.973773 210.194786,426.049077 C212.22097,424.516936 213.9761,422.507121 215.468017,420.425067 C219.307574,415.066493 222.266766,409.012408 226.189768,403.728314 C228.008181,401.278904 230.245496,399.010372 232.693382,397.224555 C235.225272,395.377697 238.201825,393.996195 241.130216,392.831409 C243.650345,391.828461 246.355284,391.10551 249.040062,390.721915 C252.097259,390.285121 255.329185,389.960885 258.355581,390.37024 C260.954114,390.722475 263.534727,391.850861 265.913729,393.006687 C267.753423,393.900996 269.530395,395.105541 271.011111,396.521763 C273.572682,398.972293 275.789276,401.837217 278.041712,404.606943 C280.886658,408.10578 283.405107,411.875653 286.302696,415.32801 C288.91243,418.437091 291.365356,421.907928 294.563681,424.291259 C297.576076,426.536271 301.349549,427.982733 304.934294,429.212478 C307.325616,430.033428 309.958872,430.363823 312.492442,430.443343 C315.583241,430.540221 318.865009,430.598461 321.80796,429.739991 C325.89561,428.547766 329.859494,426.460112 333.584245,424.291259 C338.413374,421.480654 343.164658,418.353652 347.470159,414.800497 C351.542688,411.440538 355.248958,407.537947 358.719457,403.551916 C361.166783,400.741871 363.299932,397.60927 365.223071,394.412829 C367.635675,390.403279 370.030918,386.27109 371.726685,381.933944 C373.077474,378.478787 373.669985,374.704434 374.363301,371.037039 C375.075657,367.263806 375.659207,363.439054 375.944822,359.612621 C376.244997,355.589071 376.394525,351.507282 376.120671,347.485412 C375.808175,342.895148 375.31983,338.228166 374.186891,333.776782 C372.741457,328.092852 370.406697,322.61388 368.387233,317.079469 C362.965595,302.226213 356.498383,287.543755 351.864705,272.61266 C351.225712,270.554126 351.733098,268.111996 352.567541,266.110021 C359.232443,250.126139 366.516737,234.028579 374.363301,218.65509 C375.188223,217.03839 376.974715,215.854004 378.581437,215.140013 C380.138317,214.447862 382.172902,213.899629 383.854668,214.437222 C392.198537,217.104469 400.571527,219.790755 408.950117,222.512322" id="Stroke-1" stroke="#011321" stroke-width="2"></path>
            <g id="Buttons/POI" transform="translate(31.000000, 518.000000)">
                <g id="POI-Copy-8" transform="translate(3.000000, 8.000000)">
                    <g id="Oval">
                        <use fill="black" fill-opacity="1" filter="url(#filter-2)" xlink:href="#path-1"></use>
                        <use fill="#A0D9E2" fill-rule="evenodd" xlink:href="#path-1"></use>
                    </g>
                    <text id="10" font-family="NeueHaasUnicaPro-Bold, Neue Haas Unica Pro" font-size="12" font-weight="bold" line-spacing="40" letter-spacing="-1.33333333" fill="#1D1D1B">
                        <tspan x="9.06666667" y="17">1</tspan>
                    </text>
                </g>
            </g>
            <g id="Buttons/POI" transform="translate(0.000000, 427.000000)">
                <g id="POI-Copy-8" transform="translate(3.000000, 8.000000)">
                    <g id="Oval">
                        <use fill="black" fill-opacity="1" filter="url(#filter-4)" xlink:href="#path-3"></use>
                        <use fill="#A0D9E2" fill-rule="evenodd" xlink:href="#path-3"></use>
                    </g>
                    <text id="10" font-family="NeueHaasUnicaPro-Bold, Neue Haas Unica Pro" font-size="12" font-weight="bold" line-spacing="40" letter-spacing="-1.33333333" fill="#1D1D1B">
                        <tspan x="9.06666667" y="17">2</tspan>
                    </text>
                </g>
            </g>
            <g id="Buttons/POI" transform="translate(86.000000, 415.000000)">
                <g id="POI-Copy-8" transform="translate(3.000000, 8.000000)">
                    <g id="Oval">
                        <use fill="black" fill-opacity="1" filter="url(#filter-6)" xlink:href="#path-5"></use>
                        <use fill="#A0D9E2" fill-rule="evenodd" xlink:href="#path-5"></use>
                    </g>
                    <text id="10" font-family="NeueHaasUnicaPro-Bold, Neue Haas Unica Pro" font-size="12" font-weight="bold" line-spacing="40" letter-spacing="-1.33333333" fill="#1D1D1B">
                        <tspan x="9.06666667" y="17">3</tspan>
                    </text>
                </g>
            </g>
            <g id="Buttons/POI" transform="translate(135.000000, 427.000000)">
                <g id="POI-Copy-8" transform="translate(3.000000, 8.000000)">
                    <g id="Oval">
                        <use fill="black" fill-opacity="1" filter="url(#filter-8)" xlink:href="#path-7"></use>
                        <use fill="#A0D9E2" fill-rule="evenodd" xlink:href="#path-7"></use>
                    </g>
                    <text id="10" font-family="NeueHaasUnicaPro-Bold, Neue Haas Unica Pro" font-size="12" font-weight="bold" line-spacing="40" letter-spacing="-1.33333333" fill="#1D1D1B">
                        <tspan x="9.06666667" y="17">4</tspan>
                    </text>
                </g>
            </g>
            <g id="Buttons/POI" transform="translate(176.000000, 391.000000)">
                <g id="POI-Copy-8" transform="translate(3.000000, 8.000000)">
                    <g id="Oval">
                        <use fill="black" fill-opacity="1" filter="url(#filter-10)" xlink:href="#path-9"></use>
                        <use fill="#A0D9E2" fill-rule="evenodd" xlink:href="#path-9"></use>
                    </g>
                    <text id="10" font-family="NeueHaasUnicaPro-Bold, Neue Haas Unica Pro" font-size="12" font-weight="bold" line-spacing="40" letter-spacing="-1.33333333" fill="#1D1D1B">
                        <tspan x="9.06666667" y="17">5</tspan>
                    </text>
                </g>
            </g>
            <g id="Buttons/POI" transform="translate(234.000000, 391.000000)">
                <g id="POI-Copy-8" transform="translate(3.000000, 8.000000)">
                    <g id="Oval">
                        <use fill="black" fill-opacity="1" filter="url(#filter-12)" xlink:href="#path-11"></use>
                        <use fill="#A0D9E2" fill-rule="evenodd" xlink:href="#path-11"></use>
                    </g>
                    <text id="10" font-family="NeueHaasUnicaPro-Bold, Neue Haas Unica Pro" font-size="12" font-weight="bold" line-spacing="40" letter-spacing="-1.33333333" fill="#1D1D1B">
                        <tspan x="9.06666667" y="17">6</tspan>
                    </text>
                </g>
            </g>
            <g id="Buttons/POI" transform="translate(297.000000, 386.000000)">
                <g id="POI-Copy-8" transform="translate(3.000000, 8.000000)">
                    <g id="Oval">
                        <use fill="black" fill-opacity="1" filter="url(#filter-14)" xlink:href="#path-13"></use>
                        <use fill="#A0D9E2" fill-rule="evenodd" xlink:href="#path-13"></use>
                    </g>
                    <text id="10" font-family="NeueHaasUnicaPro-Bold, Neue Haas Unica Pro" font-size="12" font-weight="bold" line-spacing="40" letter-spacing="-1.33333333" fill="#1D1D1B">
                        <tspan x="9.06666667" y="17">7</tspan>
                    </text>
                </g>
            </g>
            <g id="Buttons/POI" transform="translate(313.000000, 244.000000)">
                <g id="POI-Copy-8" transform="translate(3.000000, 8.000000)">
                    <g id="Oval">
                        <use fill="black" fill-opacity="1" filter="url(#filter-16)" xlink:href="#path-15"></use>
                        <use fill="#A0D9E2" fill-rule="evenodd" xlink:href="#path-15"></use>
                    </g>
                    <text id="10" font-family="NeueHaasUnicaPro-Bold, Neue Haas Unica Pro" font-size="12" font-weight="bold" line-spacing="40" letter-spacing="-1.33333333" fill="#1D1D1B">
                        <tspan x="9.06666667" y="17">8</tspan>
                    </text>
                </g>
            </g>
            <g id="Buttons/POI" transform="translate(353.000000, 173.000000)">
                <g id="POI-Copy-8" transform="translate(3.000000, 8.000000)">
                    <g id="Oval">
                        <use fill="black" fill-opacity="1" filter="url(#filter-18)" xlink:href="#path-17"></use>
                        <use fill="#A0D9E2" fill-rule="evenodd" xlink:href="#path-17"></use>
                    </g>
                    <text id="10" font-family="NeueHaasUnicaPro-Bold, Neue Haas Unica Pro" font-size="12" font-weight="bold" line-spacing="40" letter-spacing="-1.33333333" fill="#1D1D1B">
                        <tspan x="9.06666667" y="17">9</tspan>
                    </text>
                </g>
            </g>
            <g id="Buttons/POI" transform="translate(464.000000, 252.000000)">
                <g id="POI-Copy-8" transform="translate(3.000000, 8.000000)">
                    <g id="Oval">
                        <use fill="black" fill-opacity="1" filter="url(#filter-20)" xlink:href="#path-19"></use>
                        <use fill="#A0D9E2" fill-rule="evenodd" xlink:href="#path-19"></use>
                    </g>
                    <text id="10" font-family="NeueHaasUnicaPro-Bold, Neue Haas Unica Pro" font-size="12" font-weight="bold" line-spacing="40" letter-spacing="-1.33333333" fill="#1D1D1B">
                        <tspan x="6.13333333" y="17">10</tspan>
                    </text>
                </g>
            </g>
            <g id="Buttons/POI" transform="translate(528.000000, 288.000000)">
                <g id="POI-Copy-8" transform="translate(3.000000, 8.000000)">
                    <g id="Oval">
                        <use fill="black" fill-opacity="1" filter="url(#filter-22)" xlink:href="#path-21"></use>
                        <use fill="#A0D9E2" fill-rule="evenodd" xlink:href="#path-21"></use>
                    </g>
                    <text id="10" font-family="NeueHaasUnicaPro-Bold, Neue Haas Unica Pro" font-size="12" font-weight="bold" line-spacing="40" letter-spacing="-1.33333333" fill="#1D1D1B">
                        <tspan x="6.13333333" y="17">11</tspan>
                    </text>
                </g>
            </g>
            <g id="Buttons/POI" transform="translate(513.000000, 184.000000)">
                <g id="POI-Copy-8" transform="translate(3.000000, 8.000000)">
                    <g id="Oval">
                        <use fill="black" fill-opacity="1" filter="url(#filter-24)" xlink:href="#path-23"></use>
                        <use fill="#A0D9E2" fill-rule="evenodd" xlink:href="#path-23"></use>
                    </g>
                    <text id="10" font-family="NeueHaasUnicaPro-Bold, Neue Haas Unica Pro" font-size="12" font-weight="bold" line-spacing="40" letter-spacing="-1.33333333" fill="#1D1D1B">
                        <tspan x="6.13333333" y="17">12</tspan>
                    </text>
                </g>
            </g>
            <g id="Buttons/POI" transform="translate(672.000000, 111.000000)">
                <g id="POI-Copy-8" transform="translate(3.000000, 8.000000)">
                    <g id="Oval">
                        <use fill="black" fill-opacity="1" filter="url(#filter-26)" xlink:href="#path-25"></use>
                        <use fill="#A0D9E2" fill-rule="evenodd" xlink:href="#path-25"></use>
                    </g>
                    <text id="10" font-family="NeueHaasUnicaPro-Bold, Neue Haas Unica Pro" font-size="12" font-weight="bold" line-spacing="40" letter-spacing="-1.33333333" fill="#1D1D1B">
                        <tspan x="6.13333333" y="17">13</tspan>
                    </text>
                </g>
            </g>
            <g id="Buttons/POI" transform="translate(688.000000, 0.000000)">
                <g id="POI-Copy-8" transform="translate(3.000000, 8.000000)">
                    <g id="Oval">
                        <use fill="black" fill-opacity="1" filter="url(#filter-28)" xlink:href="#path-27"></use>
                        <use fill="#A0D9E2" fill-rule="evenodd" xlink:href="#path-27"></use>
                    </g>
                    <text id="10" font-family="NeueHaasUnicaPro-Bold, Neue Haas Unica Pro" font-size="12" font-weight="bold" line-spacing="40" letter-spacing="-1.33333333" fill="#1D1D1B">
                        <tspan x="6.13333333" y="17">14</tspan>
                    </text>
                </g>
            </g>
            <g id="Buttons/POI" transform="translate(394.000000, 252.000000)">
                <g id="POI-Copy-8" transform="translate(3.000000, 8.000000)">
                    <g id="Oval">
                        <use fill="black" fill-opacity="1" filter="url(#filter-30)" xlink:href="#path-29"></use>
                        <use fill="#A0D9E2" fill-rule="evenodd" xlink:href="#path-29"></use>
                    </g>
                    <text id="10" font-family="NeueHaasUnicaPro-Bold, Neue Haas Unica Pro" font-size="12" font-weight="bold" line-spacing="40" letter-spacing="-1.33333333" fill="#1D1D1B">
                        <tspan x="6.13333333" y="17">15</tspan>
                    </text>
                </g>
            </g>
            <g id="Buttons/POI" transform="translate(415.000000, 373.000000)">
                <g id="POI-Copy-8" transform="translate(3.000000, 8.000000)">
                    <g id="Oval">
                        <use fill="black" fill-opacity="1" filter="url(#filter-32)" xlink:href="#path-31"></use>
                        <use fill="#A0D9E2" fill-rule="evenodd" xlink:href="#path-31"></use>
                    </g>
                    <text id="10" font-family="NeueHaasUnicaPro-Bold, Neue Haas Unica Pro" font-size="12" font-weight="bold" line-spacing="40" letter-spacing="-1.33333333" fill="#1D1D1B">
                        <tspan x="6.13333333" y="17">16</tspan>
                    </text>
                </g>
            </g>
            <g id="Buttons/POI" transform="translate(394.000000, 397.000000)">
                <g id="POI-Copy-8" transform="translate(3.000000, 8.000000)">
                    <g id="Oval">
                        <use fill="black" fill-opacity="1" filter="url(#filter-34)" xlink:href="#path-33"></use>
                        <use fill="#A0D9E2" fill-rule="evenodd" xlink:href="#path-33"></use>
                    </g>
                    <text id="10" font-family="NeueHaasUnicaPro-Bold, Neue Haas Unica Pro" font-size="12" font-weight="bold" line-spacing="40" letter-spacing="-1.33333333" fill="#1D1D1B">
                        <tspan x="6.13333333" y="17">17</tspan>
                    </text>
                </g>
            </g>
            <g id="Buttons/POI" transform="translate(384.000000, 445.000000)">
                <g id="POI-Copy-8" transform="translate(3.000000, 8.000000)">
                    <g id="Oval">
                        <use fill="black" fill-opacity="1" filter="url(#filter-36)" xlink:href="#path-35"></use>
                        <use fill="#A0D9E2" fill-rule="evenodd" xlink:href="#path-35"></use>
                    </g>
                    <text id="10" font-family="NeueHaasUnicaPro-Bold, Neue Haas Unica Pro" font-size="12" font-weight="bold" line-spacing="40" letter-spacing="-1.33333333" fill="#1D1D1B">
                        <tspan x="6.13333333" y="17">18</tspan>
                    </text>
                </g>
            </g>
        </g>
    </g>
</svg>