<svg id="Livello_1" data-name="Livello 1" xmlns="http://www.w3.org/2000/svg" xmlns:xlink="http://www.w3.org/1999/xlink" viewBox="0 0 768 600"><defs><style>.cls-1{filter:url(#filter-2);}.cls-2{fill:#a0d9e2;}.cls-3,.cls-4{isolation:isolate;}.cls-4{font-size:12px;fill:#1d1d1b;font-family:NeueHaasUnicaPro-Bold, Neue Haas Unica Pro;font-weight:700;letter-spacing:-0.11em;}.cls-5{fill:none;stroke:#011321;stroke-width:2px;}.cls-6{fill:#0c111b;fill-rule:evenodd;}.cls-7{filter:url(#filter-4);}.cls-8{filter:url(#filter-6);}.cls-9{filter:url(#filter-8);}.cls-10{filter:url(#filter-10);}.cls-11{filter:url(#filter-12);}.cls-12{filter:url(#filter-14);}.cls-13{filter:url(#filter-16);}.cls-14{filter:url(#filter-18);}.cls-15{filter:url(#filter-20);}.cls-16{filter:url(#filter-22);}.cls-17{filter:url(#filter-24);}.cls-18{filter:url(#filter-26);}.cls-19{filter:url(#filter-28);}</style><filter id="filter-2" x="-215.4" y="-153.8" width="530.8" height="530.8" name="filter-2"><feOffset result="shadowOffsetOuter1" dy="16" in="SourceAlpha"/><feGaussianBlur result="shadowBlurOuter1" stdDeviation="16" in="shadowOffsetOuter1"/><feColorMatrix values="0 0 0 0 0.63 0 0 0 0 0.85 0 0 0 0 0.89 0 0 0 0.3 0" in="shadowBlurOuter1"/></filter><filter id="filter-4" x="-215.4" y="-153.8" width="530.8" height="530.8" name="filter-4"><feOffset result="shadowOffsetOuter1" dy="16" in="SourceAlpha"/><feGaussianBlur result="shadowBlurOuter1" stdDeviation="16" in="shadowOffsetOuter1"/><feColorMatrix values="0 0 0 0 0.63 0 0 0 0 0.85 0 0 0 0 0.89 0 0 0 0.3 0" in="shadowBlurOuter1"/></filter><filter id="filter-6" x="-215.4" y="-153.8" width="530.8" height="530.8" name="filter-6"><feOffset result="shadowOffsetOuter1" dy="16" in="SourceAlpha"/><feGaussianBlur result="shadowBlurOuter1" stdDeviation="16" in="shadowOffsetOuter1"/><feColorMatrix values="0 0 0 0 0.63 0 0 0 0 0.85 0 0 0 0 0.89 0 0 0 0.3 0" in="shadowBlurOuter1"/></filter><filter id="filter-8" x="-215.4" y="-153.8" width="530.8" height="530.8" name="filter-8"><feOffset result="shadowOffsetOuter1" dy="16" in="SourceAlpha"/><feGaussianBlur result="shadowBlurOuter1" stdDeviation="16" in="shadowOffsetOuter1"/><feColorMatrix values="0 0 0 0 0.63 0 0 0 0 0.85 0 0 0 0 0.89 0 0 0 0.3 0" in="shadowBlurOuter1"/></filter><filter id="filter-10" x="-215.4" y="-153.8" width="530.8" height="530.8" name="filter-10"><feOffset result="shadowOffsetOuter1" dy="16" in="SourceAlpha"/><feGaussianBlur result="shadowBlurOuter1" stdDeviation="16" in="shadowOffsetOuter1"/><feColorMatrix values="0 0 0 0 0.63 0 0 0 0 0.85 0 0 0 0 0.89 0 0 0 0.3 0" in="shadowBlurOuter1"/></filter><filter id="filter-12" x="-215.4" y="-153.8" width="530.8" height="530.8" name="filter-12"><feOffset result="shadowOffsetOuter1" dy="16" in="SourceAlpha"/><feGaussianBlur result="shadowBlurOuter1" stdDeviation="16" in="shadowOffsetOuter1"/><feColorMatrix values="0 0 0 0 0.63 0 0 0 0 0.85 0 0 0 0 0.89 0 0 0 0.3 0" in="shadowBlurOuter1"/></filter><filter id="filter-14" x="-215.4" y="-153.8" width="530.8" height="530.8" name="filter-14"><feOffset result="shadowOffsetOuter1" dy="16" in="SourceAlpha"/><feGaussianBlur result="shadowBlurOuter1" stdDeviation="16" in="shadowOffsetOuter1"/><feColorMatrix values="0 0 0 0 0.63 0 0 0 0 0.85 0 0 0 0 0.89 0 0 0 0.3 0" in="shadowBlurOuter1"/></filter><filter id="filter-16" x="-215.4" y="-153.8" width="530.8" height="530.8" name="filter-16"><feOffset result="shadowOffsetOuter1" dy="16" in="SourceAlpha"/><feGaussianBlur result="shadowBlurOuter1" stdDeviation="16" in="shadowOffsetOuter1"/><feColorMatrix values="0 0 0 0 0.63 0 0 0 0 0.85 0 0 0 0 0.89 0 0 0 0.3 0" in="shadowBlurOuter1"/></filter><filter id="filter-18" x="-215.4" y="-153.8" width="530.8" height="530.8" name="filter-18"><feOffset result="shadowOffsetOuter1" dy="16" in="SourceAlpha"/><feGaussianBlur result="shadowBlurOuter1" stdDeviation="16" in="shadowOffsetOuter1"/><feColorMatrix values="0 0 0 0 0.63 0 0 0 0 0.85 0 0 0 0 0.89 0 0 0 0.3 0" in="shadowBlurOuter1"/></filter><filter id="filter-20" x="-215.4" y="-153.8" width="530.8" height="530.8" name="filter-20"><feOffset result="shadowOffsetOuter1" dy="16" in="SourceAlpha"/><feGaussianBlur result="shadowBlurOuter1" stdDeviation="16" in="shadowOffsetOuter1"/><feColorMatrix values="0 0 0 0 0.63 0 0 0 0 0.85 0 0 0 0 0.89 0 0 0 0.3 0" in="shadowBlurOuter1"/></filter><filter id="filter-22" x="-215.4" y="-153.8" width="530.8" height="530.8" name="filter-22"><feOffset result="shadowOffsetOuter1" dy="16" in="SourceAlpha"/><feGaussianBlur result="shadowBlurOuter1" stdDeviation="16" in="shadowOffsetOuter1"/><feColorMatrix values="0 0 0 0 0.63 0 0 0 0 0.85 0 0 0 0 0.89 0 0 0 0.3 0" in="shadowBlurOuter1"/></filter><filter id="filter-24" x="-215.4" y="-153.8" width="530.8" height="530.8" name="filter-24"><feOffset result="shadowOffsetOuter1" dy="16" in="SourceAlpha"/><feGaussianBlur result="shadowBlurOuter1" stdDeviation="16" in="shadowOffsetOuter1"/><feColorMatrix values="0 0 0 0 0.63 0 0 0 0 0.85 0 0 0 0 0.89 0 0 0 0.3 0" in="shadowBlurOuter1"/></filter><filter id="filter-26" x="-215.4" y="-153.8" width="530.8" height="530.8" name="filter-26"><feOffset result="shadowOffsetOuter1" dy="16" in="SourceAlpha"/><feGaussianBlur result="shadowBlurOuter1" stdDeviation="16" in="shadowOffsetOuter1"/><feColorMatrix values="0 0 0 0 0.63 0 0 0 0 0.85 0 0 0 0 0.89 0 0 0 0.3 0" in="shadowBlurOuter1"/></filter><filter id="filter-28" x="-215.4" y="-153.8" width="530.8" height="530.8" name="filter-28"><feOffset result="shadowOffsetOuter1" dy="16" in="SourceAlpha"/><feGaussianBlur result="shadowBlurOuter1" stdDeviation="16" in="shadowOffsetOuter1"/><feColorMatrix values="0 0 0 0 0.63 0 0 0 0 0.85 0 0 0 0 0.89 0 0 0 0.3 0" in="shadowBlurOuter1"/></filter></defs><title>Race Track Portimao</title><g id="POI-Copy-8"><g id="Oval"><g class="cls-1"><circle id="path-1" cx="68.97" cy="440.45" r="13"/></g><circle class="cls-2" cx="68.97" cy="440.45" r="13"/></g><g class="cls-3"><text class="cls-4" transform="translate(65.04 444.45)">1</text></g></g><path class="cls-5" d="M48.35,343a22.93,22.93,0,0,1-.1-10.58C48.91,329,52,323,52,323l32.81-56.2s4.67-5.63,7.17-6.41,4.21-1.61,6.3-1.12a13.66,13.66,0,0,1,6.14,4.13c1.48,1.73,2.64,5.66,2.64,5.66l12.07,46s3.86,7,6.41,9.81a39.84,39.84,0,0,0,8.68,7.17c2.66,1.56,3.16,1.67,6.79,2.64S156.12,337,156.12,337L201,338.84l58.83,2.64,49,2.26h56.57L413,342.23l30.55.38s5.29-.81,7.17-2.64a11.71,11.71,0,0,0,3-7.55,11.91,11.91,0,0,0-2.27-7.16c-1.41-2-5.65-4.15-5.65-4.15l-104.1-40.36a93.67,93.67,0,0,0-12.82-1.82c-5-.14-9.59.46-17,1.07s-27.15,4.53-27.15,4.53L221.37,294a43.42,43.42,0,0,1-10.56-1.5,40.1,40.1,0,0,1-15.08-7.92c-7-5.45-30.55-48.28-30.55-48.28a22.83,22.83,0,0,1-.76-12.07c1.35-7,2.9-7.41,6.41-10.83s13.58-3.5,13.58-3.5,41.64,5.88,66.76,10.93,83.73,20,83.73,20,10.53,1.83,15.84,1.89,10.86-.08,15.84-1.51,8.52-3.47,13.58-6.79,16.22-13.58,16.22-13.58,55.32-60.52,58.83-63,4.81-5.07,12.74-7.7,11.36-2.61,17.06-3.24a91.11,91.11,0,0,1,18.48.38c4.66.6,6.53.39,9.43,2.26a19.4,19.4,0,0,1,6.79,8.67c1.36,3.35,1.13,10.56,1.13,10.56l-.38,83.36s-.08,7.14,1.51,12.07,2.66,11.2,8.68,18.48,9.42,8.53,13.58,11.31,72.24,32.74,75.81,33.57,7.83,1.12,10.93,0a17,17,0,0,0,7.86-5.12c1.89-2.43,2.5-5.83,3.08-9.21s.18-8.3-1.13-10.94-48.65-70.91-48.65-70.91-3.22-9.69-2.27-14.7,3.28-10.32,6.86-13.58,8.74-5.74,13.67-7.26A47,47,0,0,1,626.82,194c5.67.32,11.68,1.2,16.6,3.77s9,7.47,12.07,10.93a84.1,84.1,0,0,1,6.79,9.43L712.82,294s6.37,13.34,8.3,20a79.28,79.28,0,0,1,3.39,19.62,108.43,108.43,0,0,1-1.89,23A79.62,79.62,0,0,1,717,375.8a113.22,113.22,0,0,1-12.45,20.37c-4.63,6.17-7.17,10.65-15.09,16.59S670.72,425.7,656.24,429s-10.93,1.51-26.4,1.89-66.38-1.51-66.38-1.51h0L96.91,424.45s-12.37-.48-16.22-2.26c-5.26-2.43-5.87-4.28-8.24-8.95L48.35,343Z"/><polygon id="Triangle" class="cls-6" points="502.64 411.38 528.84 404.09 528.41 420.08 502.64 411.38"/><g class="cls-7"><circle id="path-3" cx="26.62" cy="338.09" r="13"/></g><circle class="cls-2" cx="26.62" cy="338.09" r="13"/><g class="cls-3"><text class="cls-4" transform="translate(22.69 342.09)">2</text></g><g class="cls-8"><circle id="path-5" cx="86.07" cy="241.64" r="13"/></g><circle class="cls-2" cx="86.07" cy="241.64" r="13"/><g class="cls-3"><text class="cls-4" transform="translate(82.13 245.64)">3</text></g><g class="cls-9"><circle id="path-7" cx="118.07" cy="347.19" r="13"/></g><circle class="cls-2" cx="118.07" cy="347.19" r="13"/><g class="cls-3"><text class="cls-4" transform="translate(114.14 351.19)">4</text></g><g class="cls-10"><circle id="path-9" cx="472.21" cy="338.09" r="13"/></g><circle class="cls-2" cx="472.21" cy="338.09" r="13"/><g class="cls-3"><text class="cls-4" transform="translate(468.28 342.09)">5</text></g><g class="cls-11"><circle id="path-11" cx="331.56" cy="297.17" r="13"/></g><circle class="cls-2" cx="331.56" cy="297.17" r="13"/><g class="cls-3"><text class="cls-4" transform="translate(327.63 301.17)">6</text></g><g class="cls-12"><circle id="path-13" cx="208.49" cy="311.09" r="13"/></g><circle class="cls-2" cx="208.49" cy="311.09" r="13"/><g class="cls-3"><text class="cls-4" transform="translate(204.56 315.09)">7</text></g><g class="cls-13"><circle id="path-15" cx="147.37" cy="213.05" r="13"/></g><circle class="cls-2" cx="147.37" cy="213.05" r="13"/><g class="cls-3"><text class="cls-4" transform="translate(143.44 217.05)">8</text></g><g class="cls-14"><circle id="path-17" cx="357.56" cy="221.02" r="13"/></g><circle class="cls-2" cx="357.56" cy="221.02" r="13"/><g class="cls-3"><text class="cls-4" transform="translate(353.63 225.02)">9</text></g><g class="cls-15"><circle id="path-19" cx="498.21" cy="165.1" r="13"/></g><circle class="cls-2" cx="498.21" cy="165.1" r="13"/><g class="cls-3"><text class="cls-4" transform="translate(491.35 169.1)">10</text></g><g class="cls-16"><circle id="path-21" cx="511.21" cy="291.1" r="13"/></g><circle class="cls-2" cx="511.21" cy="291.1" r="13"/><g class="cls-3"><text class="cls-4" transform="translate(504.34 295.1)">11</text></g><g class="cls-17"><circle id="path-23" cx="645.93" cy="342.09" r="13"/></g><circle class="cls-2" cx="645.93" cy="342.09" r="13"/><g class="cls-3"><text class="cls-4" transform="translate(639.07 346.09)">12</text></g><g class="cls-18"><circle id="path-25" cx="613.69" cy="174.09" r="13"/></g><circle class="cls-2" cx="613.69" cy="174.09" r="13"/><g class="cls-3"><text class="cls-4" transform="translate(606.82 178.09)">13</text></g><g class="cls-19"><circle id="path-27" cx="741.38" cy="373.62" r="13"/></g><circle class="cls-2" cx="741.38" cy="373.62" r="13"/><g class="cls-3"><text class="cls-4" transform="translate(734.51 377.62)">14</text></g></svg>