<?xml version="1.0" encoding="utf-8"?>
<!-- Generator: Adobe Illustrator 25.1.0, SVG Export Plug-In . SVG Version: 6.00 Build 0)  -->
<svg version="1.1" id="Livello_1" xmlns="http://www.w3.org/2000/svg" xmlns:xlink="http://www.w3.org/1999/xlink" x="0px" y="0px"
	 viewBox="0 0 768 600" style="enable-background:new 0 0 768 600;" xml:space="preserve">
<style type="text/css">
	.st0{fill:none;stroke:#011321;stroke-width:2;}
	.st1{fill:#A0D9E2;}
	.st2{fill:#1D1D1B;}
	.st3{font-family:NeueHaasUnicaPro-Bold, Neue Haas Unica Pro;font-weight:700}
	.st4{font-size:8.03px;}
	.st5{fill-rule:evenodd;clip-rule:evenodd;fill:#0C111B;}
</style>
<g id="Layer_1">
	<path class="st0" d="M734,88.1c-5.4,1.3-8.3,4-11.8,6.6c-15,10.8-41.1,27.3-57.1,37.4c-56.1,35.8-58.4,41.8-107.3,81.7l-61.7,51.7
		c-8,6.8-20.2,14-14.5,21.1c0.8,1,18,13.9-10.6,15.9c-16.3,1.1-18.8-0.8-32.2,5.6c-12.8,6.2-42.4,25.8-59.7,35
		c-2.2,1.1-11.8,5.2-12.8,6.1c-2.4,2.3-1.4,12-2.2,16.8c-2.1,12.5-16,25.1-32.9,23.7c-8.9-0.8-17.3-7.1-31.8,0.6
		c-6.3,3.4-17.1,11.6-19.7,18.1c-5.5,13.5,0.9,16.9-15,22.8c-6.8,2.5-21.4,9.4-29.3,8.5c-11.9-1.4-14.4-11.2-21.8-16.1
		c-10.1-6.6-20.2-0.8-31.1,0.8c-12.2,1.8-23.1,0-35.2,2.7c-24.7,5.5-80.6,32.5-107.3,44c-9.5,4.1-18.4,7-21,17
		c-5.4,20.4,19.2,33.8,42.3,15.8c11.6-9,23.8-43.4,66.7-46.6c13.1-1,24.5,2.7,36.4,1.4c5.3-0.5,10.6-1.6,15.6-3.5
		c24.2-8.8,16,10.6,35.5,16c9.9,2.8,24.1-2,32-5.2c44.1-17.9,40-45.6,89.3-61.9c19.4-6.4,33.1-13.2,46.7-29
		c5.4-6.2,10.9-14.8,16.4-21.4c16.9-20.2,46.8-34.2,75.1-38.4c14.1-2.1,20.3-0.9,25.8-12c2.2-4.5,2.5-9.5,4.7-14.2
		c1.8-4.2,4.8-7.8,8.7-10.3c5.1-3.7,17.2-12.3,23.3-14.3c7-2.3,25.9,0.9,34.2,1.8c27.1,3,40.7,5.4,65.2-5.1
		c11.5-4.9,35.7-22.3,45.4-30.3c30.3-24.9,47.8-53.9,58.2-93.2c2.6-9.9,5.3-19.9,7.9-29.7c1.6-5.8,2.3-9.9-1-14.9
		C744.5,88.7,739.1,86.7,734,88.1z"/>
</g>
<g id="POI-Copy-8">
	<g id="Oval">
		<g>
			<circle id="path-1" cx="471.7" cy="264.6" r="8.7"/>
		</g>
		<circle class="st1" cx="471.7" cy="264.6" r="8.7"/>
	</g>
	<g>
		<text transform="matrix(1 0 0 1 469.08 267.27)" class="st2 st3 st4">1</text>
	</g>
</g>
<g id="POI-Copy-8-2">
	<g id="Oval-2">
		<g>
			<circle id="path-1-2" cx="469.9" cy="289.6" r="8.7"/>
		</g>
		<circle class="st1" cx="469.9" cy="289.6" r="8.7"/>
	</g>
	<g>
		<text transform="matrix(1 0 0 1 467.21 292.24)" class="st2 st3 st4">2</text>
	</g>
</g>
<g id="POI-Copy-8-3">
	<g id="Oval-3">
		<g>
			<circle id="path-1-3" cx="437.8" cy="291.8" r="8.7"/>
		</g>
		<circle class="st1" cx="437.8" cy="291.8" r="8.7"/>
	</g>
	<g>
		<text transform="matrix(1 0 0 1 435.13 294.48)" class="st2 st3 st4">3</text>
	</g>
</g>
<g id="POI-Copy-8-4">
	<g id="Oval-4">
		<g>
			<circle id="path-1-4" cx="362.2" cy="338.3" r="8.7"/>
		</g>
		<circle class="st1" cx="362.2" cy="338.3" r="8.7"/>
	</g>
	<g>
		<text transform="matrix(1 0 0 1 359.58 340.99)" class="st2 st3 st4">4</text>
	</g>
</g>
<g id="POI-Copy-8-5">
	<g id="Oval-5">
		<g>
			<circle id="path-1-5" cx="343.4" cy="372.1" r="8.7"/>
		</g>
		<circle class="st1" cx="343.4" cy="372.1" r="8.7"/>
	</g>
	<g>
		<text transform="matrix(1 0 0 1 340.73 374.76)" class="st2 st3 st4">5</text>
	</g>
</g>
<g id="POI-Copy-8-6">
	<g id="Oval-6">
		<g>
			<circle id="path-1-6" cx="308.7" cy="374.8" r="8.7"/>
		</g>
		<circle class="st1" cx="308.7" cy="374.8" r="8.7"/>
	</g>
	<g>
		<text transform="matrix(1 0 0 1 306.11 377.44)" class="st2 st3 st4">6</text>
	</g>
</g>
<g id="POI-Copy-8-7">
	<g id="Oval-7">
		<g>
			<circle id="path-1-7" cx="271.1" cy="396.8" r="8.7"/>
		</g>
		<circle class="st1" cx="271.1" cy="396.8" r="8.7"/>
	</g>
	<g>
		<text transform="matrix(1 0 0 1 268.48 399.48)" class="st2 st3 st4">7</text>
	</g>
</g>
<g id="POI-Copy-8-8">
	<g id="Oval-8">
		<g>
			<circle id="path-1-8" cx="262.4" cy="419.1" r="8.7"/>
		</g>
		<circle class="st1" cx="262.4" cy="419.1" r="8.7"/>
	</g>
	<g>
		<text transform="matrix(1 0 0 1 259.78 421.8)" class="st2 st3 st4">8</text>
	</g>
</g>
<g id="POI-Copy-8-9">
	<g id="Oval-9">
		<g>
			<circle id="path-1-9" cx="236.8" cy="427.8" r="8.7"/>
		</g>
		<circle class="st1" cx="236.8" cy="427.8" r="8.7"/>
	</g>
	<g>
		<text transform="matrix(1 0 0 1 234.18 430.5)" class="st2 st3 st4">9</text>
	</g>
</g>
<g id="POI-Copy-8-10">
	<g id="Oval-10">
		<g>
			<circle id="path-1-10" cx="219.4" cy="405.5" r="8.7"/>
		</g>
		<circle class="st1" cx="219.4" cy="405.5" r="8.7"/>
	</g>
	<g>
		<text transform="matrix(1 0 0 1 214.89 408.17)" class="st2 st3 st4">10</text>
	</g>
</g>
<g id="POI-Copy-8-11">
	<g id="Oval-11">
		<g>
			<circle id="path-1-11" cx="181.6" cy="410.4" r="8.7"/>
		</g>
		<circle class="st1" cx="181.6" cy="410.4" r="8.7"/>
	</g>
	<g>
		<text transform="matrix(1 0 0 1 177.04 413.11)" class="st2 st3 st4">11</text>
	</g>
</g>
<g id="POI-Copy-8-12">
	<g id="Oval-12">
		<g>
			<circle id="path-1-12" cx="151" cy="413.1" r="8.7"/>
		</g>
		<circle class="st1" cx="151" cy="413.1" r="8.7"/>
	</g>
	<g>
		<text transform="matrix(1 0 0 1 146.44 415.79)" class="st2 st3 st4">12</text>
	</g>
</g>
<g id="POI-Copy-8-13">
	<g id="Oval-13">
		<g>
			<circle id="path-1-13" cx="35" cy="498.1" r="8.7"/>
		</g>
		<circle class="st1" cx="35" cy="498.1" r="8.7"/>
	</g>
	<g>
		<text transform="matrix(1 0 0 1 30.51 500.76)" class="st2 st3 st4">13</text>
	</g>
</g>
<g id="POI-Copy-8-14">
	<g id="Oval-14">
		<g>
			<circle id="path-1-14" cx="113.6" cy="472" r="8.7"/>
		</g>
		<circle class="st1" cx="113.6" cy="472" r="8.7"/>
	</g>
	<g>
		<text transform="matrix(1 0 0 1 109.08 474.68)" class="st2 st3 st4">14</text>
	</g>
</g>
<g id="POI-Copy-8-15">
	<g id="Oval-15">
		<g>
			<circle id="path-1-15" cx="159.7" cy="472" r="8.7"/>
		</g>
		<circle class="st1" cx="159.7" cy="472" r="8.7"/>
	</g>
	<g>
		<text transform="matrix(1 0 0 1 155.14 474.68)" class="st2 st3 st4">15</text>
	</g>
</g>
<g id="POI-Copy-8-16">
	<g id="Oval-16">
		<g>
			<circle id="path-1-16" cx="189.7" cy="466.7" r="8.7"/>
		</g>
		<circle class="st1" cx="189.7" cy="466.7" r="8.7"/>
	</g>
	<g>
		<text transform="matrix(1 0 0 1 185.16 469.39)" class="st2 st3 st4">16</text>
	</g>
</g>
<g id="POI-Copy-8-17">
	<g id="Oval-17">
		<g>
			<circle id="path-1-17" cx="215.7" cy="486.5" r="8.7"/>
		</g>
		<circle class="st1" cx="215.7" cy="486.5" r="8.7"/>
	</g>
	<g>
		<text transform="matrix(1 0 0 1 211.13 489.21)" class="st2 st3 st4">17</text>
	</g>
</g>
<g id="POI-Copy-8-18">
	<g id="Oval-18">
		<g>
			<circle id="path-1-18" cx="279.8" cy="463.9" r="8.7"/>
		</g>
		<circle class="st1" cx="279.8" cy="463.9" r="8.7"/>
	</g>
	<g>
		<text transform="matrix(1 0 0 1 275.27 466.53)" class="st2 st3 st4">18</text>
	</g>
</g>
<g id="POI-Copy-8-19">
	<g id="Oval-19">
		<g>
			<circle id="path-1-19" cx="317.4" cy="427.8" r="8.7"/>
		</g>
		<circle class="st1" cx="317.4" cy="427.8" r="8.7"/>
	</g>
	<g>
		<text transform="matrix(1 0 0 1 312.9 430.5)" class="st2 st3 st4">19</text>
	</g>
</g>
<g id="POI-Copy-8-20">
	<g id="Oval-20">
		<g>
			<circle id="path-1-20" cx="384" cy="394.1" r="8.7"/>
		</g>
		<circle class="st1" cx="384" cy="394.1" r="8.7"/>
	</g>
	<g>
		<text transform="matrix(1 0 0 1 379.46 396.74)" class="st2 st3 st4">20</text>
	</g>
</g>
<g id="POI-Copy-8-21">
	<g id="Oval-21">
		<g>
			<circle id="path-1-21" cx="435.5" cy="341" r="8.7"/>
		</g>
		<circle class="st1" cx="435.5" cy="341" r="8.7"/>
	</g>
	<g>
		<text transform="matrix(1 0 0 1 430.93 343.66)" class="st2 st3 st4">21</text>
	</g>
</g>
<g id="POI-Copy-8-22">
	<g id="Oval-22">
		<g>
			<circle id="path-1-22" cx="502" cy="321.4" r="8.7"/>
		</g>
		<circle class="st1" cx="502" cy="321.4" r="8.7"/>
	</g>
	<g>
		<text transform="matrix(1 0 0 1 497.45 324.05)" class="st2 st3 st4">22</text>
	</g>
</g>
<g id="POI-Copy-8-23">
	<g id="Oval-23">
		<g>
			<circle id="path-1-23" cx="519.4" cy="291.8" r="8.7"/>
		</g>
		<circle class="st1" cx="519.4" cy="291.8" r="8.7"/>
	</g>
	<g>
		<text transform="matrix(1 0 0 1 514.8401 294.48)" class="st2 st3 st4">23</text>
	</g>
</g>
<g id="POI-Copy-8-24">
	<g id="Oval-24">
		<g>
			<circle id="path-1-24" cx="544" cy="277.2" r="8.7"/>
		</g>
		<circle class="st1" cx="544" cy="277.2" r="8.7"/>
	</g>
	<g>
		<text transform="matrix(1 0 0 1 539.45 279.84)" class="st2 st3 st4">24</text>
	</g>
</g>
<g id="POI-Copy-8-25">
	<g id="Oval-25">
		<g>
			<circle id="path-1-25" cx="617.5" cy="280.9" r="8.7"/>
		</g>
		<circle class="st1" cx="617.5" cy="280.9" r="8.7"/>
	</g>
	<g>
		<text transform="matrix(1 0 0 1 612.96 283.55)" class="st2 st3 st4">25</text>
	</g>
</g>
<g id="POI-Copy-8-26">
	<g id="Oval-26">
		<g>
			<circle id="path-1-26" cx="741" cy="180.2" r="8.7"/>
		</g>
		<circle class="st1" cx="741" cy="180.2" r="8.7"/>
	</g>
	<g>
		<text transform="matrix(1 0 0 1 736.47 182.92)" class="st2 st3 st4">26</text>
	</g>
</g>
<g id="POI-Copy-8-27">
	<g id="Oval-27">
		<g>
			<circle id="path-1-27" cx="732.3" cy="104.9" r="8.7"/>
		</g>
		<circle class="st1" cx="732.3" cy="104.9" r="8.7"/>
	</g>
	<g>
		<text transform="matrix(1 0 0 1 727.78 107.63)" class="st2 st3 st4">27</text>
	</g>
</g>
<polygon id="Triangle_9_" class="st5" points="557.4,199.2 570.2,175.2 581.5,186.6 "/>
</svg>
